<svg version="1.1" id="Layer_1" xmlns="http://www.w3.org/2000/svg" xmlns:xlink="http://www.w3.org/1999/xlink" x="0px" y="0px" width="100%" viewBox="0 0 820 499" enable-background="new 0 0 820 499" xml:space="preserve">

<path fill="#A193E7" opacity="1.000000" stroke="none" d="
M263.690857,214.615387 
	C261.591278,214.657898 259.794525,214.306686 258.287079,214.814423 
	C248.253311,218.194061 248.101913,216.723495 248.223724,227.395325 
	C248.601532,260.497864 248.783371,293.603729 249.443527,326.700256 
	C249.505203,329.792450 251.682587,333.836243 254.177612,335.645081 
	C257.618469,338.139557 261.559357,336.493774 264.990845,333.582397 
	C267.119110,331.776703 269.504608,327.187012 273.064209,331.044617 
	C276.621155,334.899353 271.606750,336.456268 269.826141,338.390015 
	C260.516998,348.499786 249.486771,357.066437 242.726364,369.444275 
	C241.333649,371.994232 238.759399,372.735046 236.513550,370.238739 
	C226.721893,359.354980 214.804260,351.380341 202.084473,344.380798 
	C198.154831,342.218353 198.123840,339.983582 201.796448,338.436401 
	C210.563690,334.742981 212.068832,327.059998 212.115402,319.200653 
	C212.350342,279.547455 212.586060,239.887314 212.063049,200.239639 
	C211.818985,181.738144 209.901917,163.242599 200.275864,146.646576 
	C198.366913,143.355423 196.183960,140.224304 194.219604,136.963837 
	C192.907867,134.786621 191.512543,132.045944 194.641815,130.709000 
	C196.006592,130.125931 199.193832,131.306961 200.135010,132.667816 
	C204.173569,138.507202 207.875778,144.605652 211.316025,150.822510 
	C213.377457,154.547760 215.402634,154.305389 217.747360,151.555481 
	C219.992813,148.922012 221.911728,146.013260 224.065567,143.298004 
	C235.001251,129.511902 250.144791,122.702179 266.629120,118.858032 
	C274.412476,117.042969 282.673645,117.265648 290.722656,116.618965 
	C291.515259,116.555283 292.354370,116.810211 293.144196,117.020950 
	C295.450806,117.636414 298.219696,118.408806 297.044800,121.435898 
	C296.485443,122.877068 294.099213,124.237282 292.377808,124.479927 
	C287.486908,125.169342 282.378235,124.652466 277.593719,125.699760 
	C256.685730,130.276367 249.445831,142.528687 248.380844,162.545349 
	C247.647141,176.335434 248.188278,190.196518 248.296799,204.024780 
	C248.312729,206.054016 249.090271,208.077301 249.515411,210.103333 
	C251.647141,209.484253 254.109299,209.352402 255.856979,208.167084 
	C267.182098,200.486023 278.388000,192.626892 289.554413,184.715256 
	C294.118042,181.481842 296.247620,181.815552 296.876007,187.118759 
	C297.623444,193.426758 301.284180,197.733673 305.236115,201.923996 
	C319.447052,216.992218 328.986206,234.628815 333.083160,254.830917 
	C338.488739,281.485626 334.664490,307.309753 322.097961,331.287018 
	C316.560089,341.853455 308.957214,351.493561 301.333313,360.766083 
	C293.966736,369.725586 285.890747,378.265411 277.192413,385.929565 
	C262.579437,398.805084 247.230881,410.846191 232.172272,423.214569 
	C231.286575,423.942017 230.271408,424.861237 229.237671,424.974976 
	C227.780304,425.135315 226.249283,424.626282 224.749756,424.403442 
	C224.985733,422.900543 224.683319,420.870789 225.550034,419.985199 
	C229.487244,415.962280 233.831055,412.341797 237.887283,408.429993 
	C249.617661,397.117279 261.125000,385.568756 273.009094,374.421173 
	C287.285278,361.029694 293.694214,343.983856 296.105164,325.225800 
	C297.450470,314.758942 298.417694,304.101410 298.031189,293.585815 
	C297.377167,275.792572 295.087891,258.111389 288.244751,241.410156 
	C284.273346,231.717621 277.911194,223.685333 269.997345,216.934418 
	C268.483765,215.643250 266.106384,215.364700 263.690857,214.615387 
z" data-index="1" style="opacity: 1; visibility: visible;"></path>
<path fill="#A193E7" opacity="1.000000" stroke="none" d="
M607.134766,218.873398 
	C618.297180,235.703430 621.044495,253.790756 618.397522,273.244812 
	C616.510925,287.110535 612.836853,300.238098 604.206177,311.271057 
	C598.755554,318.238770 591.903687,324.116455 585.627502,330.430511 
	C578.144592,337.958618 570.463745,345.295868 563.143616,352.977783 
	C558.820496,357.514526 555.035278,362.563232 550.996765,367.372192 
	C548.991882,369.759644 547.111023,370.201996 544.189026,368.192963 
	C534.783325,361.726013 525.340576,355.258942 515.498718,349.498047 
	C508.127411,345.183197 499.997589,342.889282 491.221985,345.463623 
	C489.851166,345.865753 488.238007,345.441772 486.736877,345.399780 
	C486.956024,343.685913 486.661438,341.658966 487.482361,340.311798 
	C491.263367,334.106750 495.738525,328.304688 499.267609,321.969788 
	C512.516296,298.187622 512.141479,269.120911 491.699493,248.206802 
	C484.365143,240.703033 478.157471,231.960678 472.252136,223.231201 
	C464.373596,211.584793 466.673462,199.825272 474.416473,189.070465 
	C480.485626,180.640533 487.216492,172.674744 493.916901,164.724869 
	C494.916046,163.539413 497.362762,163.574005 499.139832,163.044220 
	C498.947937,164.954041 499.431519,167.378983 498.440002,168.678894 
	C495.218689,172.902466 492.405548,177.224106 493.347656,182.703003 
	C493.858246,185.672348 494.847015,188.949936 496.685150,191.229721 
	C503.016510,199.082382 509.874329,206.508179 516.402405,214.206100 
	C518.278809,216.418747 519.936951,216.616104 522.312622,215.061111 
	C536.538574,205.749603 550.857178,196.579117 565.055664,187.226242 
	C569.182312,184.507935 572.958069,181.262192 577.010925,178.424255 
	C579.029724,177.010620 581.629028,176.784836 582.117615,179.735291 
	C584.410706,193.584030 594.870850,202.167572 602.688171,212.465561 
	C604.185608,214.438232 605.494385,216.554153 607.134766,218.873398 
M534.244019,256.333557 
	C536.777283,264.650543 534.874573,272.873108 532.521973,280.653046 
	C529.381958,291.036713 525.051575,301.077271 520.901184,311.128387 
	C519.614502,314.244385 519.824219,315.792694 522.938293,317.428314 
	C535.646545,324.102875 548.370972,330.773163 560.768921,337.995361 
	C564.398438,340.109680 566.149231,339.567871 567.794373,336.401276 
	C570.781616,330.651306 573.765747,324.891632 576.493774,319.016449 
	C586.045105,298.445801 588.801392,277.072937 580.532532,255.694031 
	C575.911011,243.745209 568.936584,232.652496 562.463257,221.498535 
	C559.607727,216.578156 555.092834,213.551483 548.608337,213.438477 
	C541.288696,213.310883 535.041199,216.026733 528.754517,218.888153 
	C522.185364,221.878143 522.124451,222.467102 525.438965,228.923645 
	C525.893982,229.810059 526.542053,230.628418 526.835876,231.561676 
	C529.337402,239.507706 531.777649,247.473022 534.244019,256.333557 
z" data-index="2" style="opacity: 1;"></path>
<path fill="#A193E7" opacity="1.000000" stroke="none" d="
M757.239136,292.000183 
	C757.239136,300.831238 757.134338,309.164246 757.293274,317.492218 
	C757.352600,320.600311 757.702393,323.781860 758.488770,326.780701 
	C760.151184,333.120270 767.033936,335.214386 772.176941,331.164551 
	C773.734253,329.938324 775.157593,328.415558 776.908997,327.604401 
	C778.191833,327.010254 779.910461,327.357056 781.434814,327.284454 
	C781.405212,328.647278 781.863831,330.294861 781.263184,331.324585 
	C778.348816,336.320831 774.986755,341.056702 772.092346,346.063446 
	C768.044373,353.065430 764.285217,360.234009 760.373657,367.315399 
	C757.481812,372.550781 757.074524,372.565643 752.156189,369.551849 
	C750.093323,368.287811 747.797241,367.321960 745.498535,366.539612 
	C734.681152,362.857849 727.780212,355.438507 724.224915,344.704163 
	C723.559448,342.694885 722.739319,340.736816 721.655212,337.867432 
	C714.945557,342.772156 708.684448,347.238464 702.544495,351.865601 
	C695.163818,357.427734 687.949097,363.211731 680.517517,368.703430 
	C678.776489,369.989960 676.452454,370.487549 675.664795,370.817261 
	C671.621643,365.522827 668.687988,360.515594 664.669739,356.630157 
	C650.594604,343.020233 640.538452,327.272675 636.898376,307.815369 
	C632.279297,283.124298 635.120056,259.824738 651.672180,239.963242 
	C658.171631,232.164368 666.105896,225.455856 673.917542,218.881592 
	C684.745850,209.768585 695.184814,200.457260 702.143250,187.859055 
	C705.200928,182.323151 709.072144,181.942703 713.015381,186.821960 
	C724.624207,201.186447 738.902344,211.874039 756.179749,218.449448 
	C759.085388,219.555267 762.229004,220.024292 765.167297,221.058578 
	C769.301880,222.513947 769.623413,224.343460 766.322510,227.091171 
	C760.081604,232.286026 756.900024,238.591492 757.127380,247.015427 
	C757.527344,261.833893 757.239136,276.670929 757.239136,292.000183 
M744.932190,349.844025 
	C744.932190,349.844025 744.739075,349.840027 744.739075,349.840027 
	C744.739075,349.840027 744.977234,350.016174 745.271179,350.697998 
	C750.839539,353.394135 761.075073,352.342010 762.429932,348.602600 
	C756.470337,348.093292 750.476135,344.567230 744.932190,349.844025 
M676.260315,305.210236 
	C681.055725,318.964325 688.610168,330.420746 702.452759,336.630432 
	C709.396667,339.745392 720.994629,332.969818 721.203613,325.555328 
	C721.619751,310.788208 721.996155,296.018555 722.197754,281.247345 
	C722.356812,269.591125 721.981262,257.923431 722.335022,246.275787 
	C722.510559,240.496948 722.389282,235.665756 715.103577,234.923233 
	C714.354614,234.846909 713.609497,234.210876 712.965881,233.703583 
	C706.488586,228.597916 699.936829,223.580063 693.604553,218.299438 
	C689.328247,214.733307 687.537537,214.718033 684.424805,219.299545 
	C682.567993,222.032578 680.664124,224.783279 679.224365,227.741653 
	C672.348145,241.870728 668.285950,256.710602 670.342712,272.510010 
	C671.736938,283.220154 674.183472,293.793304 676.260315,305.210236 
M749.360535,361.347809 
	C752.068542,361.347809 754.776611,361.347809 757.484619,361.347809 
	C757.676331,360.852722 757.868042,360.357666 758.059753,359.862579 
	C756.830688,359.192352 755.547729,357.875275 754.382568,357.972321 
	C750.786987,358.271912 746.492676,355.822296 742.830322,360.934814 
	C745.375916,361.075012 747.013550,361.165192 749.360535,361.347809 
z" data-index="3" style="opacity: 1;"></path>
<path fill="#A092E6" opacity="1.000000" stroke="none" d="
M167.082413,279.133636 
	C172.406128,291.850830 171.889725,303.244202 162.026840,313.406921 
	C146.864990,329.029633 131.885132,344.828979 116.824768,360.550232 
	C115.902771,361.512695 114.897354,362.400024 114.023537,363.403168 
	C108.740875,369.467590 107.338593,369.063690 103.763542,361.750336 
	C99.998833,354.049011 92.595795,350.556244 85.096893,347.703644 
	C73.053802,343.122467 60.864647,338.924561 48.729237,334.587036 
	C43.375790,332.673553 42.823753,330.687592 46.923233,326.475311 
	C53.727283,319.484039 60.831120,312.781403 67.548569,305.710083 
	C72.218391,300.794281 72.488670,297.906342 68.572701,292.558197 
	C64.281105,286.697083 59.413445,281.259247 54.828960,275.610840 
	C39.989304,257.327393 42.244293,236.658188 57.658253,220.988968 
	C67.363220,211.123291 78.580299,202.747208 89.094376,193.674301 
	C93.103188,190.214981 97.092369,186.729523 100.993614,183.150375 
	C102.949425,181.356018 104.422913,181.424103 106.575409,183.108139 
	C112.552757,187.784637 118.495773,192.607773 124.964828,196.527084 
	C133.081406,201.444519 141.747528,205.337860 151.756897,202.842926 
	C166.501709,199.167633 171.456161,184.282211 162.205856,171.957870 
	C152.192032,158.616287 138.750931,152.304199 122.329277,152.770462 
	C116.662315,152.931366 111.019951,154.773972 105.418785,156.074249 
	C102.828621,156.675537 100.286942,157.436722 99.184753,154.206055 
	C97.911446,150.473816 100.951385,149.606125 103.492371,148.972015 
	C124.593170,143.706253 144.585999,145.912170 161.398071,160.493744 
	C172.652710,170.255203 177.807983,182.829498 175.644684,198.633469 
	C173.867203,211.618805 165.796417,219.040466 156.732941,226.378006 
	C152.373764,229.907043 147.842484,233.229858 143.575607,236.864914 
	C137.979340,241.632523 137.636078,246.846848 143.077759,251.704391 
	C152.137817,259.791809 160.636566,268.291412 167.082413,279.133636 
M129.742554,332.554260 
	C140.891571,331.551331 148.393799,316.901428 143.391937,305.838196 
	C138.112381,294.160797 127.793373,287.298065 118.369591,279.526672 
	C111.898209,274.189972 107.684273,274.505280 100.241325,281.280640 
	C92.380280,288.436615 85.198875,296.333862 77.549995,303.730896 
	C74.484322,306.695648 74.645332,308.533600 78.569511,310.246216 
	C95.392998,317.588348 112.188431,324.994781 129.742554,332.554260 
M77.725563,211.861267 
	C75.810463,213.703918 73.702873,215.386429 72.013695,217.417023 
	C64.812721,226.073441 63.695648,234.230743 72.538399,243.276794 
	C77.844566,248.704941 83.153191,254.139679 88.671616,259.347992 
	C92.021332,262.509460 95.878662,265.127686 99.306992,268.213287 
	C101.543732,270.226410 102.981262,269.431824 104.747948,267.649750 
	C114.585045,257.726959 124.519051,247.900269 134.351761,237.973206 
	C137.195129,235.102585 136.597061,233.729004 132.899490,232.587830 
	C126.933655,230.746643 120.779648,229.145798 115.241089,226.372894 
	C106.082802,221.787750 97.315002,216.412384 88.457512,211.241791 
	C84.947502,209.192810 81.692795,208.671738 77.725563,211.861267 
z" data-index="4" style="opacity: 1;"></path>
<path fill="#9B8EDF" opacity="1.000000" stroke="none" d="
M420.553192,294.761658 
	C427.342621,310.229431 425.747650,336.507629 417.296997,343.776398 
	C414.730530,339.818817 417.172089,336.124969 417.815399,332.548340 
	C420.549835,317.345581 417.896881,303.507233 407.956116,290.471100 
	C402.091675,297.237457 395.355743,302.715973 394.888794,312.382080 
	C393.201508,312.544220 391.593781,312.698730 389.800751,312.871033 
	C384.633820,324.359924 387.499268,335.370972 393.599091,344.876495 
	C399.666626,354.331726 408.137573,362.214172 415.106140,371.136536 
	C417.930725,374.753052 420.094482,379.109009 421.642639,383.454926 
	C425.440399,394.115936 426.890717,405.236237 426.147125,416.540771 
	C426.036011,418.229950 424.350067,419.815582 423.392700,421.449127 
	C422.661591,419.819977 421.330200,418.202240 421.299011,416.559814 
	C421.125732,407.431091 419.252869,398.676086 414.297119,391.068848 
	C410.559570,385.331665 405.659027,380.347961 401.236420,375.062103 
	C393.485413,365.798218 385.401825,356.776978 381.440948,344.998688 
	C377.321136,332.747833 377.975952,320.503723 381.183136,308.220703 
	C381.533264,306.879669 381.836578,305.526428 382.161621,304.178833 
	C381.786713,303.966187 381.411835,303.753540 381.036926,303.540894 
	C379.479553,305.495422 377.662292,307.298615 376.418060,309.435486 
	C373.708618,314.088745 371.309326,318.921906 368.734222,323.654846 
	C368.360535,324.341644 367.693695,325.425507 367.201233,325.404785 
	C362.419830,325.203552 362.884918,328.846558 362.033356,332.199707 
	C363.820007,332.023376 365.262787,331.881012 367.062927,331.703339 
	C367.780579,337.790039 365.299957,342.622833 362.239807,347.038788 
	C359.325623,351.244049 355.766571,355.002411 351.829895,359.755585 
	C351.829895,357.886078 351.127777,355.653198 351.946594,354.503784 
	C356.458496,348.170166 353.746155,340.844513 355.101044,334.114105 
	C355.314423,333.054169 354.295563,331.736450 353.817535,330.549561 
	C353.264526,329.176514 352.371918,327.861572 352.163361,326.442535 
	C351.388336,321.169891 351.030640,315.829651 350.093109,310.590485 
	C349.750488,308.675751 348.299438,306.927856 347.223969,305.184113 
	C345.994812,303.191162 344.620667,301.287598 343.815247,300.094452 
	C353.519012,289.525787 365.038788,288.052368 377.993469,288.829590 
	C387.992676,285.749084 397.335999,289.022125 406.562897,288.348450 
	C412.609436,287.906952 416.770966,290.709351 420.553192,294.761658 
M362.220367,319.681793 
	C365.226868,312.610291 368.233368,305.538788 371.437897,298.001495 
	C357.469788,303.090546 353.281097,308.164612 354.693390,317.675415 
	C355.944244,316.975342 357.195099,316.275269 359.360992,315.063080 
	C358.774689,321.106171 353.984833,326.088715 358.560394,331.556732 
	C359.757172,327.581848 360.836823,323.996002 362.220367,319.681793 
M363.220917,334.198059 
	C363.279083,333.276886 363.337280,332.355682 363.395447,331.434509 
	C362.887848,331.293243 362.380280,331.151978 361.872681,331.010742 
	C360.461029,335.313995 359.049408,339.617218 357.637756,343.920471 
	C358.491211,344.225586 359.344635,344.530701 360.198090,344.835815 
	C361.199371,341.602325 362.200653,338.368805 363.220917,334.198059 
z" data-index="5" style="opacity: 1; visibility: visible;"></path>
<path fill="#0494F0" opacity="1.000000" stroke="none" d="
M390.472717,143.559174 
	C390.472717,142.348602 390.472717,141.138031 390.472717,138.901932 
	C393.996063,140.427795 396.860046,141.668121 399.981476,143.459106 
	C404.904236,152.380981 404.220886,158.845459 397.573303,165.612854 
	C391.884186,168.589935 386.199921,168.396103 380.818390,166.669769 
	C376.965851,165.433929 375.279938,166.494003 374.131897,169.867920 
	C372.223541,175.476288 369.874023,180.971771 368.441620,186.697754 
	C364.506195,202.429688 369.076294,216.205719 379.542633,228.022339 
	C382.260010,231.090286 386.541443,232.772919 391.261505,235.844925 
	C387.666840,215.437637 398.932495,206.088394 414.200958,198.526352 
	C411.636139,197.061325 409.678101,195.994888 407.775452,194.837372 
	C406.558014,194.096741 405.422394,193.221619 404.250122,192.406769 
	C405.487000,191.526581 406.711304,190.628113 407.963165,189.769760 
	C411.180328,187.563934 414.409698,185.375885 417.634155,183.180740 
	C417.392395,182.693848 417.150604,182.206955 416.908844,181.720062 
	C410.017975,181.720062 403.127136,181.720062 395.456848,181.720062 
	C397.588989,184.819717 399.574921,187.706802 401.799561,190.940948 
	C394.055450,191.705490 382.801697,180.798859 383.181244,174.056381 
	C383.397461,170.215988 385.912048,170.366409 388.466187,170.722153 
	C391.547211,171.151260 394.588104,171.868515 397.932312,172.742569 
	C398.967712,173.045303 399.717102,173.066513 400.470581,173.080353 
	C400.474609,173.072983 400.482697,173.062164 400.858093,173.299957 
	C405.827881,173.380005 410.422333,173.222260 415.007935,173.075623 
	C414.999115,173.086700 415.023621,173.101425 415.154053,173.279633 
	C415.284515,173.457840 415.710022,173.339325 415.710022,173.339325 
	C418.926422,172.781998 422.129791,172.123291 425.364410,171.707748 
	C427.127106,171.481308 428.942780,171.667343 431.242004,171.667343 
	C430.890228,181.664688 423.733551,186.329147 417.266937,191.214203 
	C421.698944,197.535797 428.685089,196.422791 434.749084,197.368225 
	C450.193146,199.776062 455.155212,214.618256 447.596649,227.630753 
	C445.957947,230.451813 443.330688,232.698639 441.158752,235.209961 
	C440.477020,234.833603 439.795288,234.457260 439.113586,234.080902 
	C439.730682,232.408600 440.128204,230.610611 441.001434,229.084915 
	C445.786591,220.724411 445.405457,212.390808 439.327576,207.334595 
	C436.829437,205.256393 433.465057,204.219467 429.987183,203.181824 
	C432.439880,212.767548 432.194061,221.535446 427.188293,229.753006 
	C423.821960,235.279160 419.018311,239.121613 412.218597,241.478165 
	C407.984467,242.529678 404.507843,243.525360 400.597717,244.393494 
	C395.541382,243.318390 390.918549,242.370819 386.295685,241.423248 
	C370.372986,232.255981 364.097809,217.627945 363.234833,200.121628 
	C362.619019,187.628967 365.222565,175.836487 371.859528,165.046860 
	C372.365753,164.223877 372.258087,162.279404 371.631226,161.612869 
	C358.275116,147.412018 359.475494,131.693726 366.358093,115.179710 
	C369.967651,106.518898 373.204895,97.700890 376.492218,88.909729 
	C377.053253,87.409378 377.018463,85.686226 377.699463,83.575851 
	C378.736176,84.431641 379.976929,85.860054 379.817108,87.109245 
	C379.124146,92.524483 378.523010,98.039299 376.947540,103.232445 
	C374.778809,110.381050 371.497467,117.185860 369.172150,124.294754 
	C366.107391,133.664185 366.223328,142.978653 371.366394,151.764984 
	C375.173218,158.268494 380.612762,162.212296 388.437073,161.868500 
	C393.819092,161.632004 397.197205,158.320221 397.690674,153.192001 
	C398.180756,148.098160 396.012360,145.204224 390.472717,143.559174 
M396.293854,226.990753 
	C396.631744,229.419632 396.791779,231.894852 397.405884,234.251755 
	C397.615295,235.055389 399.008881,236.167694 399.789459,236.112991 
	C412.084442,235.250885 425.059296,221.681702 420.320465,208.135635 
	C418.993530,204.342438 417.229004,203.919174 414.107330,205.727295 
	C405.849579,210.510330 399.263641,216.717056 396.293854,226.990753 
z" data-index="6" style="opacity: 1;"></path>
<path fill="#7F2A05" opacity="1.000000" stroke="none" d="
M401.031219,244.521027 
	C404.507843,243.525360 407.984467,242.529678 411.907898,241.574249 
	C412.293152,245.414932 412.231628,249.215347 411.734589,253.492218 
	C407.782013,253.287750 404.264984,252.606827 400.530731,251.883850 
	C404.367950,256.285156 408.257690,257.086761 412.929321,254.617828 
	C419.258057,253.530960 425.563446,252.233978 431.934326,251.527100 
	C433.276611,251.378174 435.589233,253.069427 436.210236,254.466095 
	C439.748505,262.423798 440.050934,270.631622 437.095795,278.901917 
	C435.946411,282.118530 435.131653,285.478973 433.724091,288.573639 
	C431.362488,293.766022 427.057953,295.642090 421.023224,294.776123 
	C416.770966,290.709351 412.609436,287.906952 406.562897,288.348450 
	C397.335999,289.022125 387.992676,285.749084 378.521149,288.921509 
	C368.491211,278.917999 370.394531,255.675095 381.425629,244.482986 
	C382.373627,243.521149 383.964447,243.192917 385.940063,242.707230 
	C391.316559,244.857681 396.009674,246.871262 401.031219,249.025757 
	C401.031219,247.694992 401.031219,246.108002 401.031219,244.521027 
M378.776154,273.377167 
	C380.477295,277.181366 384.073822,278.121155 384.833344,275.015259 
	C386.061432,269.993408 385.745453,264.551971 385.676666,259.292999 
	C385.664001,258.325317 383.575775,256.486664 382.720215,256.634918 
	C381.378113,256.867462 379.369415,258.333527 379.222565,259.479553 
	C378.669891,263.792542 378.755951,268.187439 378.776154,273.377167 
M414.560059,264.649963 
	C412.925568,269.607391 411.291077,274.564819 409.656616,279.522278 
	C414.330566,275.818634 415.671326,270.922913 414.560059,264.649963 
z" data-index="7" style="opacity: 1;"></path>
<path fill="#7A2A07" opacity="1.000000" stroke="none" d="
M397.964111,165.529282 
	C404.220886,158.845459 404.904236,152.380981 400.283905,143.672470 
	C403.565460,141.797668 403.726868,139.360580 402.512115,136.389343 
	C394.206635,140.211319 389.804108,137.239456 389.531403,127.995148 
	C389.474213,126.056763 388.671570,124.150070 388.324371,122.208748 
	C387.258148,116.246964 390.226898,112.325775 396.811035,112.025024 
	C397.609100,112.983841 397.714966,113.679962 398.069336,114.209892 
	C398.641022,115.064766 399.295898,115.913811 400.094849,116.534744 
	C400.316895,116.707321 401.660767,116.045532 401.650208,115.803162 
	C401.603699,114.737373 401.567810,113.401260 400.935089,112.692154 
	C399.903473,111.535881 398.409607,110.792015 397.110779,109.874146 
	C397.696930,106.532913 398.036957,103.124680 398.924225,99.865417 
	C400.430695,94.331757 402.740265,88.981606 403.835510,83.382812 
	C404.631409,79.314354 403.855713,74.959953 404.105042,70.752274 
	C404.201538,69.123833 404.772308,67.024353 405.908051,66.115181 
	C406.810699,65.392601 409.484467,65.575447 410.314240,66.409088 
	C411.290070,67.389359 411.304993,69.494072 411.415771,71.132851 
	C411.652435,74.634743 411.058624,78.313568 411.924438,81.627449 
	C413.833862,88.935936 416.429474,96.065605 418.766235,103.261368 
	C419.019379,104.040894 419.385834,104.787727 419.743805,105.528427 
	C421.490417,109.142532 420.498199,111.085571 416.435181,111.895691 
	C415.250824,112.131836 414.386871,113.974861 413.376038,115.081337 
	C414.757202,115.500214 416.116486,116.077789 417.528564,116.272240 
	C418.254242,116.372169 419.063751,115.754196 419.852997,115.520096 
	C423.569122,114.417870 427.585632,117.455803 426.996307,121.250351 
	C426.091522,127.076050 425.880585,133.173584 421.226532,137.798141 
	C419.601990,139.412323 417.937469,141.654861 421.832825,143.440155 
	C421.238495,144.698151 420.642273,145.494202 419.980774,146.231674 
	C416.965057,149.593842 416.531860,153.228745 418.631683,157.241974 
	C420.617249,161.036835 423.671906,162.654068 427.949341,162.645432 
	C436.146790,162.628876 442.774384,157.913544 446.275238,149.740723 
	C450.707458,139.393600 449.264709,129.462234 445.217102,119.371536 
	C441.188446,109.328087 435.985352,99.495628 437.277771,88.068329 
	C442.426758,101.888168 448.558960,115.440346 452.416656,129.611694 
	C455.558929,141.154999 452.441284,152.359360 443.309540,161.138428 
	C435.723663,168.431381 426.431793,169.258789 417.572601,163.309158 
	C417.077911,162.976944 416.503052,162.764191 416.264404,162.645050 
	C416.264404,165.691498 416.264404,168.614655 415.793701,171.927795 
	C415.097961,172.530945 414.998169,172.792160 415.023621,173.101425 
	C415.023621,173.101425 414.999115,173.086700 414.612671,172.941055 
	C409.645081,172.884323 405.063873,172.973236 400.482697,173.062164 
	C400.482697,173.062164 400.474609,173.072983 400.434082,172.914581 
	C400.286713,172.564819 400.146851,172.401855 399.726990,171.895493 
	C398.974731,169.525574 398.469421,167.527420 397.964111,165.529282 
M413.599640,133.892120 
	C414.588593,132.154312 415.577576,130.416519 416.710327,128.426056 
	C411.179596,128.426056 407.115784,128.555466 403.066040,128.373123 
	C400.944153,128.277588 398.584076,127.114708 398.102753,130.493439 
	C397.657288,133.620041 399.651062,134.043213 402.103851,133.999237 
	C405.682556,133.935074 409.262939,133.962219 413.599640,133.892120 
M398.787811,119.510918 
	C397.466003,121.872429 397.564697,123.915703 400.722870,124.056229 
	C404.634125,124.230278 408.597717,124.114822 412.479431,123.640099 
	C414.087524,123.443428 415.542114,121.991539 417.066498,121.110504 
	C416.820953,120.410660 416.575378,119.710815 416.329834,119.010971 
	C410.683929,119.010971 405.037994,119.010971 398.787811,119.510918 
M412.423157,141.650940 
	C413.583710,142.405640 414.744263,143.160339 416.791718,144.491760 
	C417.160980,141.604218 417.570038,139.625244 417.496307,137.664398 
	C417.485260,137.370926 414.717773,136.550995 414.094757,137.053162 
	C413.071564,137.877838 412.760193,139.585663 412.423157,141.650940 
z" data-index="8" style="opacity: 1;"></path>
<path fill="#0492ED" opacity="1.000000" stroke="none" d="
M437.268372,87.619995 
	C435.985352,99.495628 441.188446,109.328087 445.217102,119.371536 
	C449.264709,129.462234 450.707458,139.393600 446.275238,149.740723 
	C442.774384,157.913544 436.146790,162.628876 427.949341,162.645432 
	C423.671906,162.654068 420.617249,161.036835 418.631683,157.241974 
	C416.531860,153.228745 416.965057,149.593842 419.980774,146.231674 
	C420.642273,145.494202 421.238495,144.698151 422.090027,143.681641 
	C425.516235,141.639252 428.633972,140.480774 431.173004,144.327118 
	C429.015839,145.772598 426.722412,146.784378 425.188080,148.482178 
	C423.588776,150.251862 423.797516,152.014709 426.861633,152.584274 
	C432.631165,153.656738 437.975769,150.663757 440.216888,144.946152 
	C443.287170,137.113205 442.529144,129.487762 439.377563,121.873528 
	C434.806885,110.830757 431.122711,99.590225 432.169434,87.352699 
	C432.624268,82.034767 433.689911,77.067322 439.296783,72.950874 
	C438.525513,78.333298 437.892242,82.752480 437.268372,87.619995 
z" data-index="9" style="opacity: 1;"></path>
<path fill="#9591E3" opacity="1.000000" stroke="none" d="
M390.369446,143.953430 
	C396.012360,145.204224 398.180756,148.098160 397.690674,153.192001 
	C397.197205,158.320221 393.819092,161.632004 388.437073,161.868500 
	C380.612762,162.212296 375.173218,158.268494 371.366394,151.764984 
	C366.223328,142.978653 366.107391,133.664185 369.172150,124.294754 
	C371.497467,117.185860 374.778809,110.381050 376.947540,103.232445 
	C378.523010,98.039299 379.124146,92.524483 379.817108,87.109245 
	C379.976929,85.860054 378.736176,84.431641 377.773956,83.172707 
	C377.407928,81.660896 377.407928,80.062088 377.407928,78.109879 
	C382.345184,79.719673 383.005188,83.547958 383.227386,87.444855 
	C383.830383,98.021156 381.091949,107.961411 377.250793,117.688736 
	C373.660858,126.779877 370.371155,136.131653 375.369293,145.568054 
	C377.294495,149.202789 380.792999,152.262527 384.171875,154.783936 
	C386.688934,156.662216 390.399200,156.272980 391.895172,153.106995 
	C392.663055,151.481750 391.326904,148.849854 390.902802,146.680450 
	C390.748566,145.891541 390.481689,145.124634 390.369446,143.953430 
z" data-index="10"></path>
<path fill="#27242B" opacity="1.000000" stroke="none" d="
M447.636566,190.204758 
	C447.648926,191.154144 447.162415,192.684814 447.045135,192.656998 
	C443.948853,191.923477 440.580139,191.565903 437.907959,190.020325 
	C434.850677,188.251999 433.866547,180.561493 435.594238,176.156281 
	C436.904938,172.814301 439.208679,170.749069 443.833313,171.443863 
	C442.852661,178.083801 434.190247,186.518066 447.636566,190.204758 
z" data-index="11" style="opacity: 1;"></path>
<path fill="#EB0000" opacity="1.000000" stroke="none" d="
M453.300903,175.982483 
	C452.563599,181.109482 448.644073,183.934113 444.724182,182.822113 
	C444.889160,180.329605 444.474731,177.651962 445.406158,175.579041 
	C446.055389,174.134125 448.443817,173.173294 450.246826,172.619080 
	C452.526581,171.918320 453.580231,173.273407 453.300903,175.982483 
z" data-index="12"></path>
<path fill="#0D0C12" opacity="1.000000" stroke="none" d="
M400.597717,244.393494 
	C401.031219,246.108002 401.031219,247.694992 401.031219,249.025757 
	C396.009674,246.871262 391.316559,244.857681 386.317322,242.609421 
	C386.011200,242.374725 386.128082,241.891327 386.211884,241.657288 
	C390.918549,242.370819 395.541382,243.318390 400.597717,244.393494 
z" data-index="13"></path>
<path fill="#7A2A07" opacity="1.000000" stroke="none" d="
M412.756836,254.423981 
	C408.257690,257.086761 404.367950,256.285156 400.530731,251.883850 
	C404.264984,252.606827 407.782013,253.287750 411.727783,253.952637 
	C412.299103,254.034424 412.441742,254.132278 412.756836,254.423981 
z" data-index="14"></path>
<path fill="#0D0C12" opacity="1.000000" stroke="none" d="
M397.081055,110.174065 
	C398.409607,110.792015 399.903473,111.535881 400.935089,112.692154 
	C401.567810,113.401260 401.603699,114.737373 401.650208,115.803162 
	C401.660767,116.045532 400.316895,116.707321 400.094849,116.534744 
	C399.295898,115.913811 398.641022,115.064766 398.069336,114.209892 
	C397.714966,113.679962 397.609100,112.983841 397.219727,112.019600 
	C397.048981,111.275925 397.050171,110.874954 397.081055,110.174065 
z" data-index="15"></path>
<path fill="#27242B" opacity="1.000000" stroke="none" d="
M415.154053,173.279633 
	C414.998169,172.792160 415.097961,172.530945 415.488525,172.190765 
	C415.683197,172.275436 415.712372,172.487122 415.725769,173.019073 
	C415.710022,173.339325 415.284515,173.457840 415.154053,173.279633 
z" data-index="16"></path>

<path fill="#020202" opacity="1.000000" stroke="none" d="
M676.209839,304.818970 
	C674.183472,293.793304 671.736938,283.220154 670.342712,272.510010 
	C668.285950,256.710602 672.348145,241.870728 679.224365,227.741653 
	C680.664124,224.783279 682.567993,222.032578 684.424805,219.299545 
	C687.537537,214.718033 689.328247,214.733307 693.604553,218.299438 
	C699.936829,223.580063 706.488586,228.597916 712.965881,233.703583 
	C713.609497,234.210876 714.354614,234.846909 715.103577,234.923233 
	C722.389282,235.665756 722.510559,240.496948 722.335022,246.275787 
	C721.981262,257.923431 722.356812,269.591125 722.197754,281.247345 
	C721.996155,296.018555 721.619751,310.788208 721.203613,325.555328 
	C720.994629,332.969818 709.396667,339.745392 702.452759,336.630432 
	C688.610168,330.420746 681.055725,318.964325 676.209839,304.818970 
z" data-index="18" style="opacity: 1; stroke-width: 2px; stroke: rgb(13, 153, 255); visibility: hidden;"></path>
<path fill="#9B8EDF" opacity="1.000000" stroke="none" d="
M745.015137,349.978546 
	C750.476135,344.567230 756.470337,348.093292 762.429932,348.602600 
	C761.075073,352.342010 750.839539,353.394135 745.135010,350.348877 
	C744.998779,349.999786 745.015137,349.978546 745.015137,349.978546 
z" data-index="19"></path>
<path fill="#9B8EDF" opacity="1.000000" stroke="none" d="
M749.005859,361.301575 
	C747.013550,361.165192 745.375916,361.075012 742.830322,360.934814 
	C746.492676,355.822296 750.786987,358.271912 754.382568,357.972321 
	C755.547729,357.875275 756.830688,359.192352 758.059753,359.862579 
	C757.868042,360.357666 757.676331,360.852722 757.484619,361.347809 
	C754.776611,361.347809 752.068542,361.347809 749.005859,361.301575 
z" data-index="20"></path>
<path fill="#9B8EDF" opacity="1.000000" stroke="none" d="
M744.988037,350.007996 
	C744.977234,350.016174 744.739075,349.840027 744.739075,349.840027 
	C744.739075,349.840027 744.932190,349.844025 744.973633,349.911285 
	C745.015137,349.978546 744.998779,349.999786 744.988037,350.007996 
z" data-index="21"></path>

<path fill="#020203" opacity="1.000000" stroke="none" d="
M78.084488,211.714584 
	C81.692795,208.671738 84.947502,209.192810 88.457512,211.241791 
	C97.315002,216.412384 106.082802,221.787750 115.241089,226.372894 
	C120.779648,229.145798 126.933655,230.746643 132.899490,232.587830 
	C136.597061,233.729004 137.195129,235.102585 134.351761,237.973206 
	C124.519051,247.900269 114.585045,257.726959 104.747948,267.649750 
	C102.981262,269.431824 101.543732,270.226410 99.306992,268.213287 
	C95.878662,265.127686 92.021332,262.509460 88.671616,259.347992 
	C83.153191,254.139679 77.844566,248.704941 72.538399,243.276794 
	C63.695648,234.230743 64.812721,226.073441 72.013695,217.417023 
	C73.702873,215.386429 75.810463,213.703918 78.084488,211.714584 
z" data-index="23" style="opacity: 1; stroke-width: 2px; stroke: rgb(13, 153, 255); visibility: hidden;"></path>

<path fill="#000001" opacity="1.000000" stroke="none" d="
M363.211426,334.666687 
	C362.200653,338.368805 361.199371,341.602325 360.198090,344.835815 
	C359.344635,344.530701 358.491211,344.225586 357.637756,343.920471 
	C359.049408,339.617218 360.461029,335.313995 361.872681,331.010742 
	C362.380280,331.151978 362.887848,331.293243 363.395447,331.434509 
	C363.337280,332.355682 363.279083,333.276886 363.211426,334.666687 
z" data-index="25"></path>

<path fill="#000507" opacity="1.000000" stroke="none" d="
M396.385284,226.597015 
	C399.263641,216.717056 405.849579,210.510330 414.107330,205.727295 
	C417.229004,203.919174 418.993530,204.342438 420.320465,208.135635 
	C425.059296,221.681702 412.084442,235.250885 399.789459,236.112991 
	C399.008881,236.167694 397.615295,235.055389 397.405884,234.251755 
	C396.791779,231.894852 396.631744,229.419632 396.385284,226.597015 
z" data-index="27" style="opacity: 1; stroke-width: 2px; stroke: rgb(13, 153, 255); visibility: hidden;"></path>
<path fill="#27242B" opacity="1.000000" stroke="none" d="
M400.858093,173.299942 
	C405.063873,172.973236 409.645081,172.884323 414.621521,172.929962 
	C410.422333,173.222260 405.827881,173.380005 400.858093,173.299942 
z" data-index="28"></path>
<path fill="#27242B" opacity="1.000000" stroke="none" d="
M397.932312,172.742584 
	C398.029877,172.407028 398.413422,172.353012 399.385437,172.283142 
	C400.146851,172.401855 400.286713,172.564819 400.430054,172.921936 
	C399.717102,173.066513 398.967712,173.045303 397.932312,172.742584 
z" data-index="29"></path>
<path fill="#27242B" opacity="1.000000" stroke="none" d="
M378.689453,272.964417 
	C378.755951,268.187439 378.669891,263.792542 379.222565,259.479553 
	C379.369415,258.333527 381.378113,256.867462 382.720215,256.634918 
	C383.575775,256.486664 385.664001,258.325317 385.676666,259.292999 
	C385.745453,264.551971 386.061432,269.993408 384.833344,275.015259 
	C384.073822,278.121155 380.477295,277.181366 378.689453,272.964417 
z" data-index="30"></path>
<path fill="#EB0000" opacity="1.000000" stroke="none" d="
M414.773499,264.971130 
	C415.671326,270.922913 414.330566,275.818634 409.656616,279.522278 
	C411.291077,274.564819 412.925568,269.607391 414.773499,264.971130 
z" data-index="31"></path>
<path fill="#89443C" opacity="1.000000" stroke="none" d="
M413.221130,133.921295 
	C409.262939,133.962219 405.682556,133.935074 402.103851,133.999237 
	C399.651062,134.043213 397.657288,133.620041 398.102753,130.493439 
	C398.584076,127.114708 400.944153,128.277588 403.066040,128.373123 
	C407.115784,128.555466 411.179596,128.426056 416.710327,128.426056 
	C415.577576,130.416519 414.588593,132.154312 413.221130,133.921295 
M407.226257,131.564331 
	C407.050934,131.813400 406.875610,132.062469 406.700287,132.311539 
	C406.959747,132.152069 407.219208,131.992599 407.226257,131.564331 
z" data-index="32"></path>
<path fill="#8E545E" opacity="1.000000" stroke="none" d="
M399.089966,119.260941 
	C405.037994,119.010971 410.683929,119.010971 416.329834,119.010971 
	C416.575378,119.710815 416.820953,120.410660 417.066498,121.110504 
	C415.542114,121.991539 414.087524,123.443428 412.479431,123.640099 
	C408.597717,124.114822 404.634125,124.230278 400.722870,124.056229 
	C397.564697,123.915703 397.466003,121.872429 399.089966,119.260941 
z" data-index="33"></path>
<path fill="#030204" opacity="1.000000" stroke="none" d="
M412.285889,141.286011 
	C412.760193,139.585663 413.071564,137.877838 414.094757,137.053162 
	C414.717773,136.550995 417.485260,137.370926 417.496307,137.664398 
	C417.570038,139.625244 417.160980,141.604218 416.791718,144.491760 
	C414.744263,143.160339 413.583710,142.405640 412.285889,141.286011 
z" data-index="34"></path>
<path fill="#7A2A07" opacity="1.000000" stroke="none" d="
M407.352478,131.698730 
	C407.219208,131.992599 406.959747,132.152069 406.700287,132.311539 
	C406.875610,132.062469 407.050934,131.813400 407.352478,131.698730 
z" data-index="35"></path>
</svg>