<?xml version="1.0" encoding="utf-8"?>
<!-- Generator: Adobe Illustrator 25.0.0, SVG Export Plug-In . SVG Version: 6.00 Build 0)  -->
<svg version="1.1" id="Layer_1" xmlns:v="https://vecta.io/nano"
	 xmlns="http://www.w3.org/2000/svg" xmlns:xlink="http://www.w3.org/1999/xlink" x="0px" y="0px" viewBox="0 0 160 160"
	 style="enable-background:new 0 0 160 160;" xml:space="preserve">
<style type="text/css">
	.st0{opacity:0.35;}
	.st1{fill:#4842B7;stroke:#000000;stroke-miterlimit:10;}
	.st2{fill:#9B8EC4;}
	.st3{fill:#408DCC;}
	.st4{fill:#7F2D19;}
	.st5{fill:#7A2D17;}
	.st6{fill:#3D8CCB;}
	.st7{fill:#9691C6;}
	.st8{fill:#27242B;}
	.st9{fill:#E91E25;}
	.st10{fill:#111014;}
	.st11{fill:#020202;}
	.st12{fill:#8A453D;}
	.st13{fill:#8F555E;}
	.st14{fill:#060506;}
</style>
<g class="st0">
	<path class="st1" d="M95.1,63l27.4,14.3V127c-6.6,0.6-12.7,2.2-17.9,4.8c-5.4,2.6-11.4,7-18.2,13.2c-5.9-3.5-10.9-5.9-15.2-7.1
		c-4.3-1.3-8.8-2-13.6-2c-7.4,0-13.9,2.2-19.7,6.7c-2.1,1.6-3.6,2.5-4.6,2.5c-0.8,0-1.8-0.5-2.6-1.3c-0.8-0.8-1.3-1.8-1.3-2.6
		c0-0.9,0.8-2.2,2.5-3.8c0.9-0.9,2.6-2.7,4.8-5.4l10.8-13.4l15.2-20.2L37,84.5V40.5c8.1-2.5,14.5-5.3,19.1-8.4s9-7.4,13.2-12.8
		c10.1,4.2,18.2,7.3,24.3,9c4.5,1.2,8.6,1.8,12.7,1.8c4.5,0,7.9-0.9,10.3-2.9c2.5-1.9,3.6-4,3.6-6.1c0-1.4-0.8-2.8-2.3-4.2
		c-3-2.7-4.6-5.4-4.6-8c0-2.5,0.7-4.3,2-5.9c1.3-1.4,2.8-2.2,4.5-2.2c2.2,0,4.2,1.1,6,3s2.7,4.7,2.7,8c0,3.4-0.7,6.7-2.1,10
		c-1.4,3.3-4.1,7.4-8.2,12.5L95.1,63z M80.8,81.8l-28.4,38.1c3.5-1.2,6.7-2,9.7-2.6c2.9-0.6,5.7-0.8,8.1-0.8c9,0,18.4,3,28.2,9V91.3
		L80.8,81.8z M60.6,71.2l16.2,8.3l25.7-34.2c-5.3,1.5-9.8,2.2-13.7,2.2c-9.7,0-19.1-3.3-28.2-9.7v33.4H60.6z"/>
</g>
<g>
	<path class="st2" d="M85.5,106.7c2.8,6.2,2,16.9-1.4,19.7c-1.1-1.6,0-3,0.2-4.5c1.1-6.1,0-11.7-4-16.9c-2.5,2.8-5,5-5.3,8.9
		c-0.6,0-1.4,0.2-2,0.2c-2,4.7-1.1,9,1.6,12.9c2.5,3.9,5.9,7,8.7,10.7c1.2,1.4,2,3.2,2.6,5c1.6,4.2,2.2,8.9,1.8,13.2
		c0,0.6-0.8,1.4-1.2,2c-0.2-0.6-0.8-1.4-0.8-2c0-3.6-0.8-7.3-2.8-10.3c-1.4-2.2-3.4-4.2-5.3-6.4c-3.2-3.9-6.4-7.5-8.1-12.1
		c-1.6-5-1.4-9.8-0.2-14.9c0.2-0.6,0.2-1.1,0.4-1.6c-0.2,0-0.4-0.2-0.4-0.2c-0.6,0.8-1.4,1.6-1.8,2.5l-3,5.6
		c-0.2,0.2-0.4,0.8-0.6,0.8c-2,0-1.8,1.4-2,2.8c0.8,0,1.2-0.2,2-0.2c0.2,2.5-0.8,4.5-2,6.2c-1.2,1.6-2.6,3.2-4.2,5
		c0-0.8-0.2-1.6,0-2.2c1.8-2.6,0.8-5.4,1.2-8.2c0-0.4-0.4-1.1-0.6-1.4c-0.2-0.6-0.6-1.1-0.6-1.6c-0.4-2.2-0.4-4.2-0.8-6.4
		c-0.2-0.8-0.8-1.4-1.2-2.2c-0.4-0.7-0.8-1.4-1.4-2c3.9-4.2,8.7-4.8,13.7-4.7c4-1.2,7.9,0,11.5-0.2C82.2,103.9,83.9,105,85.5,106.7
		 M62,116.8l3.6-8.7c-5.6,2-7.3,4-6.8,7.9c0.6-0.2,1.1-0.6,1.8-1.1c-0.2,2.5-2.2,4.5-0.4,6.7C60.9,119.9,61.4,118.5,62,116.8
		 M62.3,122.6v-1.2c-0.2,0-0.4-0.2-0.6-0.2l-1.6,5.3c0.4,0.2,0.6,0.2,1.1,0.4C61.1,126.8,62.3,122.6,62.3,122.6z"/>
	<path class="st3" d="M73.2,45.6v-1.8l3.9,1.8c2,3.6,1.6,6.2-1.1,8.9c-2.2,1.2-4.7,1.2-6.8,0.4c-1.6-0.4-2.2,0-2.6,1.2
		c-0.8,2.2-1.8,4.5-2.2,6.8c-1.6,6.4,0.2,11.8,4.5,16.8c1.1,1.2,2.8,2,4.7,3.2c-1.4-8.2,3-12.1,9.3-15.1l-2.7-1.3
		c-0.5-0.2-0.9-0.6-1.4-1.1c0.5-0.4,0.9-0.7,1.4-1.1l3.9-2.6c0-0.2-0.2-0.4-0.2-0.6h-8.7l2.6,3.6c-3.2,0.4-7.6-4-7.5-6.8
		c0-1.6,1.1-1.4,2.2-1.4l3.9,0.8c0.4,0.2,0.8,0.2,1.1,0.2h0.2h5.6h0.2l3.9-0.6h2.5c-0.2,4-3,5.9-5.6,7.9c1.8,2.6,4.7,2,7,2.5
		c6.2,1.1,8.2,7,5.3,12.3c-0.6,1.2-1.8,2-2.6,3c-0.2-0.2-0.5-0.4-0.8-0.4c0.2-0.6,0.4-1.4,0.8-2c2-3.4,1.8-6.7-0.6-8.9
		c-1.1-0.8-2.5-1.2-3.9-1.6c1.1,3.9,0.8,7.5-1.2,10.7c-1.4,2.2-3.2,3.9-6.1,4.7l-4.7,1.2l-5.9-1.2c-6.4-3.6-8.9-9.6-9.3-16.8
		c-0.2-5,0.8-9.8,3.4-14.1c0.2-0.4,0.2-1.2,0-1.4c-5.4-5.6-4.8-12.1-2.2-18.8l4-10.7c0.2-0.6,0.2-1.2,0.4-2.2
		c0.4,0.4,1.1,1.1,0.8,1.4c-0.2,2.2-0.6,4.5-1.2,6.4c-0.8,2.8-2.2,5.6-3.2,8.4c-1.2,3.9-1.2,7.5,0.8,11.1c1.6,2.6,3.9,4.2,6.8,4
		c2.2,0,3.6-1.4,3.9-3.4C76.5,47.5,75.4,46.5,73.2,45.6 M75.7,79.3c0.2,1.1,0.2,2,0.4,3c0,0.4,0.6,0.8,1.1,0.8
		c5-0.4,10.3-5.9,8.2-11.3c-0.6-1.6-1.2-1.6-2.5-1.1C79.4,72.6,76.9,75.3,75.7,79.3z"/>
	<path class="st4" d="M77.4,86.5l4.5-1.2c0.2,1.6,0.2,3,0,4.8c-1.6,0-3-0.4-4.5-0.6c1.6,1.8,3,2,5,1.1l7.6-1.2
		c0.6,0,1.4,0.6,1.8,1.2c1.4,3.2,1.6,6.4,0.4,9.8c-0.4,1.2-0.8,2.6-1.4,3.9c-1.1,2-2.6,2.8-5,2.5c-1.8-1.6-3.4-2.8-5.9-2.6
		c-3.6,0.2-7.5-1.1-11.3,0.2c-4-4-3.2-13.5,1.2-17.9c0.4-0.4,1.1-0.6,1.8-0.8c2.2,0.8,4,1.6,6.1,2.6C77.4,87.7,77.4,87.1,77.4,86.5
		 M68.6,98c0.6,1.6,2.2,2,2.5,0.6c0.4-2,0.4-4.2,0.4-6.2c0-0.4-0.8-1.2-1.2-1.1c-0.6,0-1.4,0.6-1.4,1.2C68.6,94.1,68.6,96,68.6,98
		 M83.1,94.6l-2,6.1C82.9,99.1,83.5,97,83.1,94.6z"/>
	<path class="st5" d="M76.3,54.5c2.6-2.6,2.8-5.3,1.1-8.9c1.4-0.8,1.4-1.8,0.8-3c-3.4,1.6-5,0.4-5.3-3.4c0-0.8-0.4-1.6-0.4-2.5
		c-0.4-2.5,0.8-4,3.4-4c0.4,0.4,0.4,0.6,0.6,0.8c0.2,0.4,0.4,0.6,0.8,1.1l0.6-0.2c0-0.4,0-1.1-0.2-1.2c-0.4-0.4-1.1-0.8-1.6-1.2
		c0.2-1.4,0.4-2.8,0.8-4c0.6-2.2,1.6-4.5,2-6.7c0.4-1.6,0-3.4,0.2-5c0-0.6,0.2-1.4,0.8-1.8c0.4-0.2,1.4-0.2,1.8,0.2
		C82,15.2,82,16,82,16.6c0,1.4-0.2,2.8,0.2,4.2c0.8,3,1.8,5.9,2.8,8.7c0.2,0.4,0.2,0.6,0.4,1.1c0.6,1.4,0.4,2.2-1.4,2.6
		c-0.4,0-0.8,0.8-1.2,1.2c0.6,0.2,1.1,0.4,1.6,0.4c0.2,0,0.6-0.2,1.1-0.4c1.4-0.4,3,0.8,2.8,2.2C88,39,88,41.3,85.9,43.2
		c-0.6,0.6-1.4,1.6,0.2,2.2c-0.2,0.6-0.4,0.8-0.8,1.2c-1.2,1.4-1.4,2.8-0.6,4.5c0.8,1.6,2,2.2,3.9,2.2c3.2,0,6.1-1.8,7.5-5.3
		c1.8-4.2,1.2-8.2-0.4-12.3c-1.6-4-3.6-8.1-3.2-12.7l6.1,16.8c1.2,4.7,0,9.3-3.6,12.7c-3,3-6.8,3.2-10.4,0.8C84.4,53,84.2,53,84,53
		c0,1.2,0,2.5-0.2,3.9l-0.4,0.4h-0.5h-5.6c0-0.2-0.2-0.2-0.2-0.4C76.6,56.2,76.5,55.4,76.3,54.5 M82.7,41.9c0.4-0.6,0.8-1.4,1.2-2.2
		h-5.4c-0.8,0-1.8-0.6-2,0.8c-0.2,1.2,0.6,1.4,1.6,1.4H82.7 M76.6,36c-0.6,1.1-0.4,1.8,0.8,1.8l4.8-0.2c0.6,0,1.2-0.6,1.8-1.1
		c0-0.2-0.2-0.6-0.2-0.8L76.6,36 M82.1,44.8c0.4,0.4,1.1,0.6,1.8,1.2c0.2-1.2,0.4-2,0.2-2.8c0-0.2-1.2-0.4-1.4-0.2
		C82.5,43.4,82.2,44,82.1,44.8z"/>
	<path class="st6" d="M92.2,23.1c-0.6,4.8,1.6,8.7,3.2,12.9c1.6,4,2.2,8.1,0.4,12.3c-1.4,3.2-4,5.3-7.5,5.3c-1.8,0-3-0.6-3.9-2.2
		c-0.8-1.6-0.6-3,0.6-4.5c0.2-0.2,0.6-0.6,0.8-1.1c1.4-0.8,2.6-1.2,3.6,0.2c-0.8,0.6-1.8,1.1-2.5,1.6c-0.6,0.8-0.6,1.4,0.6,1.6
		c2.5,0.4,4.5-0.8,5.4-3c1.2-3.2,1.1-6.2-0.4-9.3c-1.8-4.5-3.4-9-2.8-13.9c0.2-2.2,0.6-4.2,2.8-5.9C92.8,19.5,92.3,21.1,92.2,23.1z"
		/>
	<path class="st7" d="M73.2,45.9c2.2,0.6,3.2,1.6,3,3.9c-0.2,2-1.6,3.4-3.9,3.4c-3.2,0.2-5.4-1.4-6.8-4c-2-3.6-2.2-7.3-0.8-11.1
		l3.2-8.4c0.6-2,0.8-4.2,1.2-6.4c0-0.6-0.4-1.1-0.8-1.6c-0.2-0.6-0.2-1.2-0.2-2c2,0.6,2.2,2.2,2.5,3.9c0.2,4.2-0.8,8.2-2.5,12.3
		c-1.4,3.6-2.8,7.5-0.8,11.3c0.8,1.4,2.2,2.6,3.6,3.6c1.1,0.8,2.5,0.6,3-0.6c0.4-0.6-0.2-1.8-0.4-2.6C73.5,46.7,73.2,46.2,73.2,45.9
		z"/>
	<path class="st8" d="M96.4,64.6c0,0.4-0.2,1.1-0.2,1.1c-1.2-0.2-2.6-0.4-3.6-1.1c-1.2-0.8-1.6-3.9-1.1-5.6c0.6-1.4,1.4-2.2,3.4-1.8
		C94.4,59.6,90.9,63,96.4,64.6z"/>
	<path class="st9" d="M98.7,58.8c-0.2,2-1.8,3.2-3.4,2.8c0-1.1,0-2,0.2-3c0.2-0.6,1.2-1.1,2-1.2C98.4,57.1,98.8,57.7,98.7,58.8z"/>
	<path class="st10" d="M77.4,86.3c0.2,0.6,0.2,1.4,0.2,1.8l-5.9-2.6c-0.2,0,0-0.2,0-0.4L77.4,86.3z"/>
	<path class="st5" d="M82.2,90.4c-1.8,1.1-3.4,0.8-4.8-1.1l4.5,0.8C82.1,90.4,82.1,90.4,82.2,90.4z"/>
	<path class="st10" d="M76,32.2c0.6,0.2,1.2,0.6,1.6,1.1c0.2,0.2,0.2,0.8,0.2,1.2c0,0-0.6,0.4-0.6,0.2c-0.4-0.2-0.6-0.6-0.8-1.1
		c-0.2-0.2-0.2-0.4-0.4-0.8C75.8,32.7,76,32.6,76,32.2z"/>
	<path class="st8" d="M83.3,57.7c0-0.2,0-0.2,0.2-0.4v0.4H83.3z"/>
	<path class="st11" d="M62.3,122.7l-1.2,4c-0.4-0.2-0.6-0.2-1.1-0.4l1.6-5.3c0.2,0,0.4,0.2,0.6,0.2
		C62.3,121.3,62.3,122.7,62.3,122.7z"/>
	<path class="st8" d="M77.4,57.7c1.6-0.2,3.6-0.2,5.6-0.2C81.3,57.7,79.4,57.7,77.4,57.7z M76.3,57.6c0-0.2,0.2-0.2,0.6-0.2
		c0.4,0,0.4,0.2,0.4,0.2H76.3z M68.6,98l0.2-5.4c0-0.4,0.8-1.1,1.4-1.2c0.4,0,1.2,0.6,1.2,1.1c0,2.2,0.2,4.2-0.4,6.2
		C70.9,100,69.2,99.7,68.6,98z"/>
	<path class="st9" d="M83.1,94.9c0.4,2.5-0.2,4.5-2,5.9L83.1,94.9z"/>
	<path class="st12" d="M82.5,41.9H78c-1.1,0-1.8-0.2-1.6-1.4c0.2-1.4,1.2-0.8,2-0.8h5.4C83.5,40.5,83.1,41.1,82.5,41.9 M80.1,40.8
		l-0.2,0.2C79.9,41.1,80.1,41.1,80.1,40.8z"/>
	<path class="st13" d="M76.9,36c2.5-0.2,4.7-0.2,7-0.2c0,0.2,0.2,0.6,0.2,0.8c-0.6,0.4-1.2,1.1-1.8,1.1c-1.6,0.2-3.2,0.2-4.8,0.2
		C76.3,37.8,76,37,76.9,36z"/>
	<path class="st14" d="M82.1,44.8c0.2-0.6,0.4-1.4,0.8-1.6c0.2-0.2,1.4,0.2,1.4,0.2c0,0.8-0.2,1.6-0.2,2.8
		C83.1,45.5,82.7,45.3,82.1,44.8z"/>
	<path class="st5" d="M80.1,41.1c0,0.2-0.2,0.2-0.2,0.2C79.9,41.1,80.1,41.1,80.1,41.1z"/>
</g>
</svg>
