<svg xmlns="http://www.w3.org/2000/svg" viewBox="0 0 160 160" xmlns:v="https://vecta.io/nano"><path d="M52.7 70.6c-.4 0-.8-.1-1.1 0-2 .7-2 .4-2 2.5l.2 19.9c0 .6.4 1.4.9 1.8.7.5 1.5.2 2.2-.4.4-.4.9-1.3 1.6-.5s-.3 1.1-.6 1.5c-1.9 2-4.1 3.7-5.4 6.2-.3.5-.8.7-1.2.2-2-2.2-4.3-3.8-6.9-5.2-.8-.4-.8-.9-.1-1.2 1.8-.7 2.1-2.3 2.1-3.9V67.7c0-3.7-.4-7.4-2.4-10.7-.4-.7-.8-1.3-1.2-1.9-.3-.4-.5-1 .1-1.3.3-.1.9.1 1.1.4.8 1.2 1.6 2.4 2.2 3.6.4.7.8.7 1.3.1.4-.5.8-1.1 1.3-1.7 2.2-2.8 5.2-4.1 8.5-4.9 1.6-.4 3.2-.3 4.8-.4.2 0 .3 0 .5.1.5.1 1 .3.8.9-.1.3-.6.6-.9.6-1 .1-2 0-3 .2-4.2.9-5.6 3.4-5.9 7.4-.1 2.8 0 5.5 0 8.3 0 .4.2.8.2 1.2.4-.1.9-.2 1.3-.4 2.3-1.5 4.5-3.1 6.8-4.7.9-.6 1.3-.6 1.5.5.1 1.3.9 2.1 1.7 3 2.8 3 4.8 6.6 5.6 10.6 1.1 5.3.3 10.5-2.2 15.3-1.1 2.1-2.6 4-4.2 5.9-1.5 1.8-3.1 3.5-4.8 5-2.9 2.6-6 5-9 7.5-.2.1-.4.3-.6.4-.3 0-.6-.1-.9-.1 0-.3 0-.7.2-.9.8-.8 1.7-1.5 2.5-2.3l7-6.8c2.9-2.7 4.1-6.1 4.6-9.9.3-2.1.5-4.2.4-6.3-.1-3.6-.6-7.1-2-10.5-.8-1.9-2.1-3.5-3.7-4.9-.3-.2-.8-.3-1.3-.4zm68.8.8c2.2 3.4 2.8 7 2.3 10.9-.4 2.8-1.1 5.4-2.8 7.6-1.1 1.4-2.5 2.6-3.7 3.8l-4.5 4.5c-.9.9-1.6 1.9-2.4 2.9-.4.5-.8.6-1.4.2-1.9-1.3-3.8-2.6-5.7-3.7-1.5-.9-3.1-1.3-4.9-.8-.3.1-.6 0-.9 0 0-.3 0-.7.1-1 .8-1.2 1.7-2.4 2.4-3.7 2.7-4.8 2.6-10.6-1.5-14.8-1.5-1.5-2.7-3.3-3.9-5-1.6-2.3-1.1-4.7.4-6.8 1.2-1.7 2.6-3.3 3.9-4.9.2-.2.7-.2 1-.3 0 .4.1.9-.1 1.1-.6.8-1.2 1.7-1 2.8.1.6.3 1.3.7 1.7 1.3 1.6 2.6 3.1 3.9 4.6.4.4.7.5 1.2.2 2.8-1.9 5.7-3.7 8.6-5.6.8-.5 1.6-1.2 2.4-1.8.4-.3.9-.3 1 .3.5 2.8 2.6 4.5 4.1 6.6.2.3.5.8.8 1.2m-14.6 7.5c.5 1.7.1 3.3-.3 4.9-.6 2.1-1.5 4.1-2.3 6.1-.3.6-.2.9.4 1.3a282.44 282.44 0 0 1 7.6 4.1c.7.4 1.1.3 1.4-.3.6-1.2 1.2-2.3 1.7-3.5 1.9-4.1 2.5-8.4.8-12.7-.9-2.4-2.3-4.6-3.6-6.9-.6-1-1.5-1.6-2.8-1.6-1.5 0-2.7.5-4 1.1s-1.3.7-.7 2c.1.2.2.3.3.5l1.5 5zm44.7 7.2v5.1c0 .6.1 1.3.2 1.9.3 1.3 1.7 1.7 2.7.9.3-.2.6-.6.9-.7s.6 0 .9-.1c0 .3.1.6 0 .8-.6 1-1.3 1.9-1.8 3l-2.3 4.3c-.6 1-.7 1.1-1.6.4-.4-.3-.9-.4-1.3-.6-2.2-.7-3.5-2.2-4.3-4.4-.1-.4-.3-.8-.5-1.4l-3.8 2.8-4.4 3.4c-.3.3-.8.4-1 .4-.8-1.1-1.4-2.1-2.2-2.8-2.8-2.7-4.8-5.9-5.6-9.8-.9-4.9-.4-9.6 3-13.6 1.3-1.6 2.9-2.9 4.5-4.2 2.2-1.8 4.3-3.7 5.7-6.2.6-1.1 1.4-1.2 2.2-.2a19.88 19.88 0 0 0 8.6 6.3c.6.2 1.2.3 1.8.5.8.3.9.7.2 1.2-1.3 1-1.9 2.3-1.8 4l-.1 9m-2.5 11.6h0l.1.2c1.1.5 3.2.3 3.4-.4-1.2-.2-2.4-.9-3.5.2m-13.7-9c1 2.8 2.5 5.1 5.2 6.3 1.4.6 3.7-.7 3.8-2.2l.2-8.9v-7c0-1.2 0-2.1-1.4-2.3-.2 0-.3-.1-.4-.2-1.3-1-2.6-2-3.9-3.1-.9-.7-1.2-.7-1.8.2-.4.5-.8 1.1-1 1.7-1.4 2.8-2.2 5.8-1.8 9 .2 2.1.7 4.2 1.1 6.5M150 100h1.6c0-.1.1-.2.1-.3-.2-.1-.5-.4-.7-.4-.7.1-1.6-.4-2.3.6.5 0 .9 0 1.3.1z" fill="#9f92c6"/><path d="M33.4 83.5c1.1 2.5 1 4.8-1 6.9l-9.1 9.4-.6.6c-1.1 1.2-1.3 1.1-2.1-.3-.8-1.5-2.2-2.2-3.7-2.8a212.5 212.5 0 0 0-7.3-2.6c-1.1-.4-1.2-.8-.4-1.6l4.1-4.2c.9-1 1-1.6.2-2.6l-2.8-3.4c-3-3.7-2.5-7.8.6-10.9 1.9-2 4.2-3.7 6.3-5.5l2.4-2.1c.4-.4.7-.3 1.1 0 1.2.9 2.4 1.9 3.7 2.7 1.6 1 3.4 1.8 5.4 1.3 3-.7 3.9-3.7 2.1-6.2-2-2.7-4.7-3.9-8-3.8-1.1 0-2.3.4-3.4.7-.5.1-1 .3-1.2-.4-.3-.7.4-.9.9-1 4.2-1.1 8.2-.6 11.6 2.3 2.3 2 3.3 4.5 2.9 7.6-.4 2.6-2 4.1-3.8 5.6-.9.7-1.8 1.4-2.6 2.1-1.1 1-1.2 2-.1 3 1.8 1.3 3.5 3 4.8 5.2m-7.5 10.7c2.2-.2 3.7-3.1 2.7-5.4-1.1-2.3-3.1-3.7-5-5.3-1.3-1.1-2.1-1-3.6.4-1.6 1.4-3 3-4.5 4.5-.6.6-.6 1 .2 1.3l10.2 4.5M15.5 70c-.4.4-.8.7-1.1 1.1-1.4 1.7-1.7 3.4.1 5.2 1.1 1.1 2.1 2.2 3.2 3.2l2.1 1.8c.4.4.7.2 1.1-.1l5.9-5.9c.6-.6.4-.9-.3-1.1-1.2-.4-2.4-.7-3.5-1.2-1.8-.9-3.6-2-5.4-3-.7-.5-1.3-.6-2.1 0z" fill="#9e92c6"/><path d="M84.2 86.6c1.4 3.1 1 8.4-.7 9.8-.5-.8 0-1.5.1-2.2.5-3 0-5.8-2-8.4-1.2 1.4-2.5 2.5-2.6 4.4-.3 0-.7.1-1 .1-1 2.3-.5 4.5.8 6.4 1.2 1.9 2.9 3.5 4.3 5.3.6.7 1 1.6 1.3 2.5.8 2.1 1.1 4.4.9 6.6 0 .3-.4.7-.6 1-.1-.3-.4-.7-.4-1 0-1.8-.4-3.6-1.4-5.1-.7-1.1-1.7-2.1-2.6-3.2-1.6-1.9-3.2-3.7-4-6-.8-2.5-.7-4.9-.1-7.4.1-.3.1-.5.2-.8-.1 0-.2-.1-.2-.1-.3.4-.7.8-.9 1.2l-1.5 2.8c-.1.1-.2.4-.3.4-1 0-.9.7-1 1.4.4 0 .6-.1 1-.1.1 1.2-.4 2.2-1 3.1-.6.8-1.3 1.6-2.1 2.5 0-.4-.1-.8 0-1.1.9-1.3.4-2.7.6-4.1 0-.2-.2-.5-.3-.7-.1-.3-.3-.5-.3-.8-.2-1.1-.2-2.1-.4-3.2-.1-.4-.4-.7-.6-1.1a4.31 4.31 0 0 0-.7-1c1.9-2.1 4.3-2.4 6.8-2.3 2-.6 3.9 0 5.7-.1 1.4-.2 2.2.4 3 1.2m-11.7 5l1.8-4.3c-2.8 1-3.6 2-3.4 3.9.3-.1.5-.3.9-.5-.1 1.2-1.1 2.2-.2 3.3.4-.8.6-1.5.9-2.4m.2 2.9v-.6c-.1 0-.2-.1-.3-.1l-.8 2.6c.2.1.3.1.5.2l.6-2.1z" fill="#9b8ec4"/><path d="M78.1 56.3v-.9l1.9.9c1 1.8.8 3.1-.5 4.4-1.1.6-2.3.6-3.4.2-.8-.2-1.1 0-1.3.6-.4 1.1-.9 2.2-1.1 3.4-.8 3.2.1 5.9 2.2 8.3.5.6 1.4 1 2.3 1.6-.7-4.1 1.5-6 4.6-7.5l-1.3-.7a3.04 3.04 0 0 1-.7-.5 3.04 3.04 0 0 1 .7-.5l1.9-1.3c0-.1-.1-.2-.1-.3H79l1.3 1.8c-1.6.2-3.8-2-3.7-3.4 0-.8.5-.7 1.1-.7l1.9.4c.2.1.4.1.5.1h.1H83h.1l1.9-.3h1.2c-.1 2-1.5 2.9-2.8 3.9.9 1.3 2.3 1 3.5 1.2 3.1.5 4.1 3.5 2.6 6.1-.3.6-.9 1-1.3 1.5a.76.76 0 0 0-.4-.2c.1-.3.2-.7.4-1 1-1.7.9-3.3-.3-4.4-.5-.4-1.2-.6-1.9-.8.5 1.9.4 3.7-.6 5.3-.7 1.1-1.6 1.9-3 2.3l-2.3.6-2.9-.6C74 74 72.8 71 72.6 67.5c-.1-2.5.4-4.9 1.7-7 .1-.2.1-.6 0-.7-2.7-2.8-2.4-6-1.1-9.3l2-5.3c.1-.3.1-.6.2-1.1.2.2.5.5.4.7-.1 1.1-.3 2.2-.6 3.2-.4 1.4-1.1 2.8-1.6 4.2-.6 1.9-.6 3.7.4 5.5.8 1.3 1.9 2.1 3.4 2 1.1 0 1.8-.7 1.9-1.7.4-.8-.1-1.3-1.2-1.7M79.3 73c.1.5.1 1 .2 1.5 0 .2.3.4.5.4 2.5-.2 5.1-2.9 4.1-5.6-.3-.8-.6-.8-1.2-.5-1.7.9-3 2.2-3.6 4.2z" fill="#408dcc"/><path d="M80.2 76.6l2.2-.6c.1.8.1 1.5 0 2.4-.8 0-1.5-.2-2.2-.3.8.9 1.5 1 2.5.5l3.8-.6c.3 0 .7.3.9.6.7 1.6.8 3.2.2 4.9-.2.6-.4 1.3-.7 1.9-.5 1-1.3 1.4-2.5 1.2-.9-.8-1.7-1.4-2.9-1.3-1.8.1-3.7-.5-5.6.1-2-2-1.6-6.7.6-8.9.2-.2.5-.3.9-.4 1.1.4 2 .8 3 1.3-.2-.2-.2-.5-.2-.8m-4.4 5.7c.3.8 1.1 1 1.2.3.2-1 .2-2.1.2-3.1 0-.2-.4-.6-.6-.5-.3 0-.7.3-.7.6-.1.8-.1 1.7-.1 2.7m7.2-1.7l-1 3c.9-.8 1.2-1.8 1-3z" fill="#7f2d19"/><path d="M79.6 60.7c1.3-1.3 1.4-2.6.5-4.4.7-.4.7-.9.4-1.5-1.7.8-2.5.2-2.6-1.7 0-.4-.2-.8-.2-1.2-.2-1.2.4-2 1.7-2 .2.2.2.3.3.4.1.2.2.3.4.5l.3-.1c0-.2 0-.5-.1-.6-.2-.2-.5-.4-.8-.6.1-.7.2-1.4.4-2 .3-1.1.8-2.2 1-3.3.2-.8 0-1.7.1-2.5 0-.3.1-.7.4-.9.2-.1.7-.1.9.1s.2.6.2.9c0 .7-.1 1.4.1 2.1.4 1.5.9 2.9 1.4 4.3.1.2.1.3.2.5.3.7.2 1.1-.7 1.3-.2 0-.4.4-.6.6.3.1.5.2.8.2.1 0 .3-.1.5-.2.7-.2 1.5.4 1.4 1.1-.2 1.2-.2 2.4-1.2 3.3-.3.3-.7.8.1 1.1-.1.3-.2.4-.4.6-.6.7-.7 1.4-.3 2.2s1 1.1 1.9 1.1c1.6 0 3-.9 3.7-2.6.9-2.1.6-4.1-.2-6.1s-1.8-4-1.6-6.3l3 8.3c.6 2.3 0 4.6-1.8 6.3-1.5 1.5-3.4 1.6-5.2.4-.1-.1-.2-.1-.3-.1 0 .6 0 1.2-.1 1.9l-.2.2h-.1-2.8c0-.1-.1-.1-.1-.2-.2-.3-.3-.7-.4-1.1m3.2-6.3c.2-.3.4-.7.6-1.1h-2.7c-.4 0-.9-.3-1 .4-.1.6.3.7.8.7h2.3m-3-2.9c-.3.5-.2.9.4.9l2.4-.1c.3 0 .6-.3.9-.5 0-.1-.1-.3-.1-.4l-3.6.1m2.7 4.4c.2.2.5.3.9.6.1-.6.2-1 .1-1.4 0-.1-.6-.2-.7-.1-.1.2-.2.5-.3.9z" fill="#7a2d17"/><path d="M87.5 45.1c-.3 2.4.8 4.3 1.6 6.4.8 2 1.1 4 .2 6.1-.7 1.6-2 2.6-3.7 2.6-.9 0-1.5-.3-1.9-1.1s-.3-1.5.3-2.2c.1-.1.3-.3.4-.5.7-.4 1.3-.6 1.8.1-.4.3-.9.5-1.2.8-.3.4-.3.7.3.8 1.2.2 2.2-.4 2.7-1.5.6-1.6.5-3.1-.2-4.6-.9-2.2-1.7-4.5-1.4-6.9.1-1.1.3-2.1 1.4-2.9 0 1.1-.2 1.9-.3 2.9z" fill="#3d8ccb"/><path d="M78.1 56.4c1.1.3 1.6.8 1.5 1.9-.1 1-.8 1.7-1.9 1.7-1.6.1-2.7-.7-3.4-2-1-1.8-1.1-3.6-.4-5.5l1.6-4.2c.3-1 .4-2.1.6-3.2 0-.3-.2-.5-.4-.8-.1-.3-.1-.6-.1-1 1 .3 1.1 1.1 1.2 1.9.1 2.1-.4 4.1-1.2 6.1-.7 1.8-1.4 3.7-.4 5.6.4.7 1.1 1.3 1.8 1.8.5.4 1.2.3 1.5-.3.2-.3-.1-.9-.2-1.3-.1-.3-.2-.5-.2-.7z" fill="#9691c6"/><path d="M89.6 65.7c0 .2-.1.5-.1.5-.6-.1-1.3-.2-1.8-.5-.6-.4-.8-1.9-.5-2.8.3-.7.7-1.1 1.7-.9-.3 1.2-2 2.9.7 3.7z" fill="#27242b"/><path d="M90.7 62.8c-.1 1-.9 1.6-1.7 1.4 0-.5 0-1 .1-1.5.1-.3.6-.5 1-.6.5-.1.7.2.6.7z" fill="#e91e25"/><path d="M80.2 76.5c.1.3.1.7.1.9l-2.9-1.3c-.1 0 0-.1 0-.2l2.8.6z" fill="#111014"/><path d="M82.6 78.5c-.9.5-1.7.4-2.4-.5l2.2.4c.1.1.1.1.2.1z" fill="#7a2d17"/><path d="M79.5 49.6c.3.1.6.3.8.5.1.1.1.4.1.6 0 0-.3.2-.3.1-.2-.1-.3-.3-.4-.5-.1-.1-.1-.2-.2-.4-.1 0 0-.1 0-.3z" fill="#111014"/><path d="M83.1 62.3c0-.1 0-.1.1-.2v.2c0 0-.1 0-.1 0z" fill="#27242b"/><path d="M149.2 97.7c1.1-1.1 2.3-.4 3.5-.3-.3.8-2.4 1-3.5.3zm.8 2.2c-.4 0-.7 0-1.2-.1.7-1 1.6-.5 2.3-.6.2 0 .5.2.7.4 0 .1-.1.2-.1.3-.6.1-1.1.1-1.7 0zm-.9-2.2h0z" fill="#9b8ec4"/><path d="M72.7 94.6l-.6 2c-.2-.1-.3-.1-.5-.2l.8-2.6c.1 0 .2.1.3.1v.7z" fill="#020202"/><path d="M80.2 62.3c.8-.1 1.8-.1 2.8-.1-.9.1-1.8.1-2.8.1zm-.6-.1c0-.1.1-.1.3-.1s.2.1.2.1h-.5zm-3.8 20.1l.1-2.7c0-.2.4-.5.7-.6.2 0 .6.3.6.5 0 1.1.1 2.1-.2 3.1-.1.7-.9.5-1.2-.3z" fill="#27242b"/><path d="M83 80.7c.2 1.2-.1 2.2-1 2.9l1-2.9z" fill="#e91e25"/><path d="M82.7 54.4h-2.2c-.5 0-.9-.1-.8-.7.1-.7.6-.4 1-.4h2.7c-.2.4-.4.7-.7 1.1m-1.2-.5l-.1.1s.1 0 .1-.1z" fill="#8a453d"/><path d="M79.9 51.5c1.2-.1 2.3-.1 3.5-.1 0 .1.1.3.1.4-.3.2-.6.5-.9.5-.8.1-1.6.1-2.4.1-.6 0-.7-.4-.3-.9z" fill="#8f555e"/><path d="M82.5 55.9c.1-.3.2-.7.4-.8.1-.1.7.1.7.1 0 .4-.1.8-.1 1.4-.5-.4-.7-.5-1-.7z" fill="#060506"/><path d="M81.5 54c0 .1-.1.1-.1.1 0-.1.1-.1.1-.1z" fill="#7a2d17"/></svg>