<svg width="190" height="190" xmlns="http://www.w3.org/2000/svg" xml:space="preserve" version="1.1">

 <g>
  <title>Layer 1</title>
  <g stroke-width="4" stroke="null" opacity="0.4" fill="#3D8CCB" id="svg_1" class="st0">
   <path stroke-dasharray="—" stroke="#000000" id="svg_2" stroke-miterlimit="10" fill="#0d078c" d="m123.8336,81.28594l47.30716,17.58439l0,61.11498c-11.39516,0.73781 -21.92704,2.70529 -30.90504,5.90245c-9.32331,3.19716 -19.68254,8.60774 -31.42301,16.23175c-10.18658,-4.30387 -18.81927,-7.2551 -26.24339,-8.73071c-7.42412,-1.59858 -15.19354,-2.45936 -23.48093,-2.45936c-12.77639,0 -23.99889,2.70529 -34.01281,8.23884c-3.62573,1.96748 -6.21554,3.07419 -7.94208,3.07419c-1.38123,0 -3.10777,-0.61484 -4.489,-1.59858c-1.38123,-0.98374 -2.2445,-2.21342 -2.2445,-3.19716c0,-1.10671 1.38123,-2.70529 4.31635,-4.67278c1.55388,-1.10671 4.489,-3.32013 8.28739,-6.64026l18.64662,-16.47768l26.24339,-24.83949l-44.37205,-17.09252l0,-54.10582c13.98496,-3.07419 25.03481,-6.51729 32.97689,-10.32929s15.53885,-9.09961 22.79031,-15.73987c17.43804,5.16465 31.42301,8.97665 41.95489,11.0671c7.76942,1.47561 14.84823,2.21342 21.92704,2.21342c7.76942,0 13.63966,-1.10671 17.78335,-3.56607c4.31635,-2.33639 6.21554,-4.91871 6.21554,-7.50103c0,-1.72155 -1.38123,-3.4431 -3.97104,-5.16465c-5.17962,-3.32013 -7.94208,-6.64026 -7.94208,-9.83742c0,-3.07419 1.20858,-5.28761 3.45308,-7.2551c2.2445,-1.72155 4.83431,-2.70529 7.76942,-2.70529c3.79839,0 7.25146,1.35265 10.35923,3.68903s4.66165,5.77949 4.66165,9.83742c0,4.1809 -1.20858,8.23884 -3.62573,12.29678c-2.41715,4.05794 -7.07881,9.09961 -14.15762,15.37097l-39.88304,35.29175zm-24.6895,23.11794l-49.0337,46.85072c6.04289,-1.47561 11.56781,-2.45936 16.74743,-3.19716c5.00696,-0.73781 9.84127,-0.98374 13.98496,-0.98374c15.53885,0 31.76831,3.68903 48.68839,11.0671l0,-42.05498l-30.38708,-11.68194zm-34.87608,-13.03458l27.96993,10.20632l44.37205,-42.05498c-9.15066,1.84452 -16.92008,2.70529 -23.65358,2.70529c-16.74743,0 -32.97689,-4.05794 -48.68839,-11.92787l0,41.07123l0,0z" class="st1"/>
  </g>
  <g stroke="null" id="svg_3">
   <path stroke="null" id="svg_4" fill="#6448bf" d="m100.47206,125.3327c3.4257,7.58547 2.44693,20.67653 -1.71285,24.10223c-1.34581,-1.95754 0,-3.67039 0.24469,-5.50559c1.34581,-7.46313 0,-14.31452 -4.89385,-20.67653c-3.05866,3.4257 -6.11732,6.11732 -6.48436,10.88883c-0.73408,0 -1.71285,0.24469 -2.44693,0.24469c-2.44693,5.75028 -1.34581,11.01117 1.95754,15.78268c3.05866,4.77151 7.21844,8.56425 10.64413,13.09106c1.46816,1.71285 2.44693,3.91508 3.18101,6.11732c1.95754,5.13855 2.69162,10.88883 2.20223,16.14972c0,0.73408 -0.97877,1.71285 -1.46816,2.44693c-0.24469,-0.73408 -0.97877,-1.71285 -0.97877,-2.44693c0,-4.40447 -0.97877,-8.93128 -3.4257,-12.60167c-1.71285,-2.69162 -4.15978,-5.13855 -6.48436,-7.83017c-3.91508,-4.77151 -7.83017,-9.17598 -9.91005,-14.80391c-1.95754,-6.11732 -1.71285,-11.98994 -0.24469,-18.22961c0.24469,-0.73408 0.24469,-1.34581 0.48939,-1.95754c-0.24469,0 -0.48939,-0.24469 -0.48939,-0.24469c-0.73408,0.97877 -1.71285,1.95754 -2.20223,3.05866l-3.67039,6.8514c-0.24469,0.24469 -0.48939,0.97877 -0.73408,0.97877c-2.44693,0 -2.20223,1.71285 -2.44693,3.4257c0.97877,0 1.46816,-0.24469 2.44693,-0.24469c0.24469,3.05866 -0.97877,5.50559 -2.44693,7.58547c-1.46816,1.95754 -3.18101,3.91508 -5.13855,6.11732c0,-0.97877 -0.24469,-1.95754 0,-2.69162c2.20223,-3.18101 0.97877,-6.6067 1.46816,-10.0324c0,-0.48939 -0.48939,-1.34581 -0.73408,-1.71285c-0.24469,-0.73408 -0.73408,-1.34581 -0.73408,-1.95754c-0.48939,-2.69162 -0.48939,-5.13855 -0.97877,-7.83017c-0.24469,-0.97877 -0.97877,-1.71285 -1.46816,-2.69162c-0.48939,-0.85642 -0.97877,-1.71285 -1.71285,-2.44693c4.77151,-5.13855 10.64413,-5.87263 16.76145,-5.75028c4.89385,-1.46816 9.66536,0 14.06983,-0.24469c3.30335,-0.36704 5.38324,0.97877 7.34078,3.05866m-28.75139,12.35698l4.40447,-10.64413c-6.8514,2.44693 -8.93128,4.89385 -8.31955,9.66536c0.73408,-0.24469 1.34581,-0.73408 2.20223,-1.34581c-0.24469,3.05866 -2.69162,5.50559 -0.48939,8.19721c0.85642,-2.07989 1.46816,-3.79274 2.20223,-5.87263m0.36704,7.09609l0,-1.46816c-0.24469,0 -0.48939,-0.24469 -0.73408,-0.24469l-1.95754,6.48436c0.48939,0.24469 0.73408,0.24469 1.34581,0.48939c-0.12235,-0.12235 1.34581,-5.26089 1.34581,-5.26089z" class="st2"/>
   <path stroke="null" id="svg_5" fill="#408DCC" d="m85.42346,50.57907l0,-2.20223l4.77151,2.20223c2.44693,4.40447 1.95754,7.58547 -1.34581,10.88883c-2.69162,1.46816 -5.75028,1.46816 -8.31955,0.48939c-1.95754,-0.48939 -2.69162,0 -3.18101,1.46816c-0.97877,2.69162 -2.20223,5.50559 -2.69162,8.31955c-1.95754,7.83017 0.24469,14.43687 5.50559,20.55419c1.34581,1.46816 3.4257,2.44693 5.75028,3.91508c-1.71285,-10.0324 3.67039,-14.80391 11.37821,-18.4743l-3.30335,-1.5905c-0.61173,-0.24469 -1.10112,-0.73408 -1.71285,-1.34581c0.61173,-0.48939 1.10112,-0.85642 1.71285,-1.34581l4.77151,-3.18101c0,-0.24469 -0.24469,-0.48939 -0.24469,-0.73408l-10.64413,0l3.18101,4.40447c-3.91508,0.48939 -9.29832,-4.89385 -9.17598,-8.31955c0,-1.95754 1.34581,-1.71285 2.69162,-1.71285l4.77151,0.97877c0.48939,0.24469 0.97877,0.24469 1.34581,0.24469l0.24469,0l6.8514,0l0.24469,0l4.77151,-0.73408l3.05866,0c-0.24469,4.89385 -3.67039,7.21844 -6.8514,9.66536c2.20223,3.18101 5.75028,2.44693 8.56425,3.05866c7.58547,1.34581 10.0324,8.56425 6.48436,15.0486c-0.73408,1.46816 -2.20223,2.44693 -3.18101,3.67039c-0.24469,-0.24469 -0.61173,-0.48939 -0.97877,-0.48939c0.24469,-0.73408 0.48939,-1.71285 0.97877,-2.44693c2.44693,-4.15978 2.20223,-8.19721 -0.73408,-10.88883c-1.34581,-0.97877 -3.05866,-1.46816 -4.77151,-1.95754c1.34581,4.77151 0.97877,9.17598 -1.46816,13.09106c-1.71285,2.69162 -3.91508,4.77151 -7.46313,5.75028l-5.75028,1.46816l-7.21844,-1.46816c-7.83017,-4.40447 -10.88883,-11.74525 -11.37821,-20.55419c-0.24469,-6.11732 0.97877,-11.98994 4.15978,-17.25084c0.24469,-0.48939 0.24469,-1.46816 0,-1.71285c-6.6067,-6.8514 -5.87263,-14.80391 -2.69162,-23.00112l4.89385,-13.09106c0.24469,-0.73408 0.24469,-1.46816 0.48939,-2.69162c0.48939,0.48939 1.34581,1.34581 0.97877,1.71285c-0.24469,2.69162 -0.73408,5.50559 -1.46816,7.83017c-0.97877,3.4257 -2.69162,6.8514 -3.91508,10.27709c-1.46816,4.77151 -1.46816,9.17598 0.97877,13.58045c1.95754,3.18101 4.77151,5.13855 8.31955,4.89385c2.69162,0 4.40447,-1.71285 4.77151,-4.15978c0.85642,-1.8352 -0.48939,-3.05866 -3.18101,-4.15978m3.05866,41.23072c0.24469,1.34581 0.24469,2.44693 0.48939,3.67039c0,0.48939 0.73408,0.97877 1.34581,0.97877c6.11732,-0.48939 12.60167,-7.21844 10.0324,-13.82514c-0.73408,-1.95754 -1.46816,-1.95754 -3.05866,-1.34581c-4.28212,2.32458 -7.34078,5.62793 -8.80894,10.52179z" class="st3"/>
   <path stroke="null" id="svg_6" fill="#7F2D19" d="m90.56201,100.61873l5.50559,-1.46816c0.24469,1.95754 0.24469,3.67039 0,5.87263c-1.95754,0 -3.67039,-0.48939 -5.50559,-0.73408c1.95754,2.20223 3.67039,2.44693 6.11732,1.34581l9.29832,-1.46816c0.73408,0 1.71285,0.73408 2.20223,1.46816c1.71285,3.91508 1.95754,7.83017 0.48939,11.98994c-0.48939,1.46816 -0.97877,3.18101 -1.71285,4.77151c-1.34581,2.44693 -3.18101,3.4257 -6.11732,3.05866c-2.20223,-1.95754 -4.15978,-3.4257 -7.21844,-3.18101c-4.40447,0.24469 -9.17598,-1.34581 -13.82514,0.24469c-4.89385,-4.89385 -3.91508,-16.51676 1.46816,-21.9c0.48939,-0.48939 1.34581,-0.73408 2.20223,-0.97877c2.69162,0.97877 4.89385,1.95754 7.46313,3.18101c-0.36704,-0.73408 -0.36704,-1.46816 -0.36704,-2.20223m-10.76648,14.06983c0.73408,1.95754 2.69162,2.44693 3.05866,0.73408c0.48939,-2.44693 0.48939,-5.13855 0.48939,-7.58547c0,-0.48939 -0.97877,-1.46816 -1.46816,-1.34581c-0.73408,0 -1.71285,0.73408 -1.71285,1.46816c-0.36704,1.95754 -0.36704,4.28212 -0.36704,6.72905m17.74022,-4.15978l-2.44693,7.46313c2.20223,-1.95754 2.93631,-4.52682 2.44693,-7.46313z" class="st4"/>
   <path stroke="null" id="svg_7" fill="#7A2D17" d="m89.2162,61.4679c3.18101,-3.18101 3.4257,-6.48436 1.34581,-10.88883c1.71285,-0.97877 1.71285,-2.20223 0.97877,-3.67039c-4.15978,1.95754 -6.11732,0.48939 -6.48436,-4.15978c0,-0.97877 -0.48939,-1.95754 -0.48939,-3.05866c-0.48939,-3.05866 0.97877,-4.89385 4.15978,-4.89385c0.48939,0.48939 0.48939,0.73408 0.73408,0.97877c0.24469,0.48939 0.48939,0.73408 0.97877,1.34581l0.73408,-0.24469c0,-0.48939 0,-1.34581 -0.24469,-1.46816c-0.48939,-0.48939 -1.34581,-0.97877 -1.95754,-1.46816c0.24469,-1.71285 0.48939,-3.4257 0.97877,-4.89385c0.73408,-2.69162 1.95754,-5.50559 2.44693,-8.19721c0.48939,-1.95754 0,-4.15978 0.24469,-6.11732c0,-0.73408 0.24469,-1.71285 0.97877,-2.20223c0.48939,-0.24469 1.71285,-0.24469 2.20223,0.24469c0.36704,0.61173 0.36704,1.5905 0.36704,2.32458c0,1.71285 -0.24469,3.4257 0.24469,5.13855c0.97877,3.67039 2.20223,7.21844 3.4257,10.64413c0.24469,0.48939 0.24469,0.73408 0.48939,1.34581c0.73408,1.71285 0.48939,2.69162 -1.71285,3.18101c-0.48939,0 -0.97877,0.97877 -1.46816,1.46816c0.73408,0.24469 1.34581,0.48939 1.95754,0.48939c0.24469,0 0.73408,-0.24469 1.34581,-0.48939c1.71285,-0.48939 3.67039,0.97877 3.4257,2.69162c-0.36704,2.93631 -0.36704,5.75028 -2.93631,8.07486c-0.73408,0.73408 -1.71285,1.95754 0.24469,2.69162c-0.24469,0.73408 -0.48939,0.97877 -0.97877,1.46816c-1.46816,1.71285 -1.71285,3.4257 -0.73408,5.50559c0.97877,1.95754 2.44693,2.69162 4.77151,2.69162c3.91508,0 7.46313,-2.20223 9.17598,-6.48436c2.20223,-5.13855 1.46816,-10.0324 -0.48939,-15.0486c-1.95754,-4.89385 -4.40447,-9.91005 -3.91508,-15.53799l7.46313,20.55419c1.46816,5.75028 0,11.37821 -4.40447,15.53799c-3.67039,3.67039 -8.31955,3.91508 -12.72402,0.97877c-0.24469,-0.36704 -0.48939,-0.36704 -0.73408,-0.36704c0,1.46816 0,3.05866 -0.24469,4.77151l-0.48939,0.48939l-0.61173,0l-6.8514,0c0,-0.24469 -0.24469,-0.24469 -0.24469,-0.48939c-0.61173,-0.85642 -0.73408,-1.8352 -0.97877,-2.93631m7.83017,-15.41564c0.48939,-0.73408 0.97877,-1.71285 1.46816,-2.69162l-6.6067,0c-0.97877,0 -2.20223,-0.73408 -2.44693,0.97877c-0.24469,1.46816 0.73408,1.71285 1.95754,1.71285l5.62793,0m-7.46313,-7.21844c-0.73408,1.34581 -0.48939,2.20223 0.97877,2.20223l5.87263,-0.24469c0.73408,0 1.46816,-0.73408 2.20223,-1.34581c0,-0.24469 -0.24469,-0.73408 -0.24469,-0.97877l-8.80894,0.36704m6.72905,10.76648c0.48939,0.48939 1.34581,0.73408 2.20223,1.46816c0.24469,-1.46816 0.48939,-2.44693 0.24469,-3.4257c0,-0.24469 -1.46816,-0.48939 -1.71285,-0.24469c-0.24469,0.48939 -0.61173,1.22346 -0.73408,2.20223z" class="st5"/>
   <path stroke="null" id="svg_8" fill="#3D8CCB" d="m108.66927,23.05114c-0.73408,5.87263 1.95754,10.64413 3.91508,15.78268c1.95754,4.89385 2.69162,9.91005 0.48939,15.0486c-1.71285,3.91508 -4.89385,6.48436 -9.17598,6.48436c-2.20223,0 -3.67039,-0.73408 -4.77151,-2.69162c-0.97877,-1.95754 -0.73408,-3.67039 0.73408,-5.50559c0.24469,-0.24469 0.73408,-0.73408 0.97877,-1.34581c1.71285,-0.97877 3.18101,-1.46816 4.40447,0.24469c-0.97877,0.73408 -2.20223,1.34581 -3.05866,1.95754c-0.73408,0.97877 -0.73408,1.71285 0.73408,1.95754c3.05866,0.48939 5.50559,-0.97877 6.6067,-3.67039c1.46816,-3.91508 1.34581,-7.58547 -0.48939,-11.37821c-2.20223,-5.50559 -4.15978,-11.01117 -3.4257,-17.00614c0.24469,-2.69162 0.73408,-5.13855 3.4257,-7.21844c0.36704,2.93631 -0.24469,4.89385 -0.36704,7.34078z" class="st6"/>
   <path stroke="null" id="svg_9" fill="#1303c1" d="m85.42346,50.94611c2.69162,0.73408 3.91508,1.95754 3.67039,4.77151c-0.24469,2.44693 -1.95754,4.15978 -4.77151,4.15978c-3.91508,0.24469 -6.6067,-1.71285 -8.31955,-4.89385c-2.44693,-4.40447 -2.69162,-8.93128 -0.97877,-13.58045l3.91508,-10.27709c0.73408,-2.44693 0.97877,-5.13855 1.46816,-7.83017c0,-0.73408 -0.48939,-1.34581 -0.97877,-1.95754c-0.24469,-0.73408 -0.24469,-1.46816 -0.24469,-2.44693c2.44693,0.73408 2.69162,2.69162 3.05866,4.77151c0.24469,5.13855 -0.97877,10.0324 -3.05866,15.0486c-1.71285,4.40447 -3.4257,9.17598 -0.97877,13.82514c0.97877,1.71285 2.69162,3.18101 4.40447,4.40447c1.34581,0.97877 3.05866,0.73408 3.67039,-0.73408c0.48939,-0.73408 -0.24469,-2.20223 -0.48939,-3.18101c0,-1.10112 -0.36704,-1.71285 -0.36704,-2.07989z" class="st7"/>
   <path stroke="null" id="svg_10" fill="#27242B" d="m113.80782,73.82488c0,0.48939 -0.24469,1.34581 -0.24469,1.34581c-1.46816,-0.24469 -3.18101,-0.48939 -4.40447,-1.34581c-1.46816,-0.97877 -1.95754,-4.77151 -1.34581,-6.8514c0.73408,-1.71285 1.71285,-2.69162 4.15978,-2.20223c-0.61173,2.93631 -4.89385,7.09609 1.8352,9.05363z" class="st8"/>
   <path stroke="null" id="svg_11" fill="#E91E25" d="m116.62178,66.72879c-0.24469,2.44693 -2.20223,3.91508 -4.15978,3.4257c0,-1.34581 0,-2.44693 0.24469,-3.67039c0.24469,-0.73408 1.46816,-1.34581 2.44693,-1.46816c1.10112,-0.36704 1.5905,0.36704 1.46816,1.71285z" class="st9"/>
   <path stroke="null" id="svg_12" fill="#111014" d="m90.56201,100.37404c0.24469,0.73408 0.24469,1.71285 0.24469,2.20223l-7.21844,-3.18101c-0.24469,0 0,-0.24469 0,-0.48939l6.97374,1.46816z" class="st10"/>
   <path stroke="null" id="svg_13" fill="#7A2D17" d="m96.43463,105.39024c-2.20223,1.34581 -4.15978,0.97877 -5.87263,-1.34581l5.50559,0.97877c0.24469,0.36704 0.24469,0.36704 0.36704,0.36704z" class="st5"/>
   <path stroke="null" id="svg_14" fill="#111014" d="m88.84916,34.18466c0.73408,0.24469 1.46816,0.73408 1.95754,1.34581c0.24469,0.24469 0.24469,0.97877 0.24469,1.46816c0,0 -0.73408,0.48939 -0.73408,0.24469c-0.48939,-0.24469 -0.73408,-0.73408 -0.97877,-1.34581c-0.24469,-0.24469 -0.24469,-0.48939 -0.48939,-0.97877c-0.24469,-0.12235 0,-0.24469 0,-0.73408z" class="st10"/>
   <path stroke="null" id="svg_15" fill="#27242B" d="m97.78044,65.38298c0,-0.24469 0,-0.24469 0.24469,-0.48939l0,0.48939l-0.24469,0z" class="st8"/>
   <path stroke="null" id="svg_16" fill="#020202" d="m72.08771,144.90812l-1.46816,4.89385c-0.48939,-0.24469 -0.73408,-0.24469 -1.34581,-0.48939l1.95754,-6.48436c0.24469,0 0.48939,0.24469 0.73408,0.24469c0.12235,0.12235 0.12235,1.8352 0.12235,1.8352z" class="st11"/>
   <path stroke="null" id="svg_17" fill="#27242B" d="m90.56201,65.38298c1.95754,-0.24469 4.40447,-0.24469 6.8514,-0.24469c-2.07989,0.24469 -4.40447,0.24469 -6.8514,0.24469zm-1.34581,-0.12235c0,-0.24469 0.24469,-0.24469 0.73408,-0.24469c0.48939,0 0.48939,0.24469 0.48939,0.24469l-1.22346,0zm-9.42067,49.42793l0.24469,-6.6067c0,-0.48939 0.97877,-1.34581 1.71285,-1.46816c0.48939,0 1.46816,0.73408 1.46816,1.34581c0,2.69162 0.24469,5.13855 -0.48939,7.58547c-0.12235,1.5905 -2.20223,1.22346 -2.93631,-0.85642z" class="st8"/>
   <path stroke="null" id="svg_18" fill="#E91E25" d="m97.53575,110.89583c0.48939,3.05866 -0.24469,5.50559 -2.44693,7.21844l2.44693,-7.21844z" class="st9"/>
   <path stroke="null" id="svg_19" fill="#8A453D" d="m96.80167,46.05226l-5.50559,0c-1.34581,0 -2.20223,-0.24469 -1.95754,-1.71285c0.24469,-1.71285 1.46816,-0.97877 2.44693,-0.97877l6.6067,0c-0.36704,0.97877 -0.85642,1.71285 -1.5905,2.69162m-2.93631,-1.34581l-0.24469,0.24469c0,0.12235 0.24469,0.12235 0.24469,-0.24469z" class="st12"/>
   <path stroke="null" id="svg_20" fill="#8F555E" d="m89.95028,38.83382c3.05866,-0.24469 5.75028,-0.24469 8.56425,-0.24469c0,0.24469 0.24469,0.73408 0.24469,0.97877c-0.73408,0.48939 -1.46816,1.34581 -2.20223,1.34581c-1.95754,0.24469 -3.91508,0.24469 -5.87263,0.24469c-1.46816,-0.12235 -1.8352,-1.10112 -0.73408,-2.32458z" class="st13"/>
   <path stroke="null" id="svg_21" fill="#060506" d="m96.31229,49.6003c0.24469,-0.73408 0.48939,-1.71285 0.97877,-1.95754c0.24469,-0.24469 1.71285,0.24469 1.71285,0.24469c0,0.97877 -0.24469,1.95754 -0.24469,3.4257c-1.22346,-0.85642 -1.71285,-1.10112 -2.44693,-1.71285z" class="st14"/>
   <path stroke="null" id="svg_22" fill="#7A2D17" d="m93.86536,45.07349c0,0.24469 -0.24469,0.24469 -0.24469,0.24469c0,-0.24469 0.24469,-0.24469 0.24469,-0.24469z" class="st5"/>
  </g>
 </g>
</svg>