<?xml version="1.0" encoding="utf-8"?>
<!-- Generator: Adobe Illustrator 25.0.0, SVG Export Plug-In . SVG Version: 6.00 Build 0)  -->
<svg version="1.1" id="Layer_1" xmlns:v="https://vecta.io/nano"
	 xmlns="http://www.w3.org/2000/svg" xmlns:xlink="http://www.w3.org/1999/xlink" x="0px" y="0px" viewBox="0 0 160 160"
	 style="enable-background:new 0 0 160 160;" xml:space="preserve">
<style type="text/css">
	.st0{opacity:0.25;}
	.st1{fill:#9B8EC4;}
	.st2{fill:#408DCC;}
	.st3{fill:#7F2D19;}
	.st4{fill:#7A2D17;}
	.st5{fill:#3D8CCB;}
	.st6{fill:#9691C6;}
	.st7{fill:#27242B;}
	.st8{fill:#E91E25;}
	.st9{fill:#111014;}
	.st10{fill:#020202;}
	.st11{fill:#8A453D;}
	.st12{fill:#8F555E;}
	.st13{fill:#060506;}
</style>
<g class="st0">
	<path class="st1" d="M92.4,64.1l23.4,12.2v42.4c-5.6,0.5-10.8,1.9-15.3,4.1c-4.6,2.2-9.7,6-15.5,11.3c-5-3-9.3-5-13-6.1
		c-3.7-1.1-7.5-1.7-11.6-1.7c-6.3,0-11.9,1.9-16.8,5.7c-1.8,1.4-3.1,2.1-3.9,2.1c-0.7,0-1.5-0.4-2.2-1.1c-0.7-0.7-1.1-1.5-1.1-2.2
		c0-0.8,0.7-1.9,2.1-3.2c0.8-0.8,2.2-2.3,4.1-4.6l9.2-11.4l13-17.2l-22-11.9V44.9c6.9-2.1,12.4-4.5,16.3-7.2
		c3.9-2.7,7.7-6.3,11.3-10.9c8.6,3.6,15.5,6.2,20.7,7.7c3.8,1,7.3,1.5,10.8,1.5c3.8,0,6.7-0.8,8.8-2.5c2.1-1.6,3.1-3.4,3.1-5.2
		c0-1.2-0.7-2.4-2-3.6c-2.6-2.3-3.9-4.6-3.9-6.8c0-2.1,0.6-3.7,1.7-5c1.1-1.2,2.4-1.9,3.8-1.9c1.9,0,3.6,0.9,5.1,2.6
		c1.5,1.7,2.3,4,2.3,6.8c0,2.9-0.6,5.7-1.8,8.5c-1.2,2.8-3.5,6.3-7,10.7L92.4,64.1z M80.2,80.2L56,112.7c3-1,5.7-1.7,8.3-2.2
		c2.5-0.5,4.9-0.7,6.9-0.7c7.7,0,15.7,2.6,24.1,7.7V88.3L80.2,80.2z M62.9,71.1l13.8,7.1L98.6,49c-4.5,1.3-8.4,1.9-11.7,1.9
		c-8.3,0-16.3-2.8-24.1-8.3V71.1z"/>
</g>
<g>
	<path class="st1" d="M84.2,101.4c2.4,5.3,1.7,14.4-1.2,16.8c-0.9-1.4,0-2.6,0.2-3.8c0.9-5.2,0-10-3.4-14.4
		c-2.1,2.4-4.3,4.3-4.5,7.6c-0.5,0-1.2,0.2-1.7,0.2c-1.7,4-0.9,7.7,1.4,11c2.1,3.3,5,6,7.4,9.1c1,1.2,1.7,2.7,2.2,4.3
		c1.4,3.6,1.9,7.6,1.5,11.3c0,0.5-0.7,1.2-1,1.7c-0.2-0.5-0.7-1.2-0.7-1.7c0-3.1-0.7-6.2-2.4-8.8c-1.2-1.9-2.9-3.6-4.5-5.5
		c-2.7-3.3-5.5-6.4-6.9-10.3c-1.4-4.3-1.2-8.4-0.2-12.7c0.2-0.5,0.2-0.9,0.3-1.4c-0.2,0-0.3-0.2-0.3-0.2c-0.5,0.7-1.2,1.4-1.5,2.1
		l-2.6,4.8c-0.2,0.2-0.3,0.7-0.5,0.7c-1.7,0-1.5,1.2-1.7,2.4c0.7,0,1-0.2,1.7-0.2c0.2,2.1-0.7,3.8-1.7,5.3c-1,1.4-2.2,2.7-3.6,4.3
		c0-0.7-0.2-1.4,0-1.9c1.5-2.2,0.7-4.6,1-7c0-0.3-0.3-0.9-0.5-1.2c-0.2-0.5-0.5-0.9-0.5-1.4c-0.3-1.9-0.3-3.6-0.7-5.5
		c-0.2-0.7-0.7-1.2-1-1.9c-0.3-0.6-0.7-1.2-1.2-1.7c3.3-3.6,7.4-4.1,11.7-4c3.4-1,6.7,0,9.8-0.2C81.4,99,82.8,100,84.2,101.4
		 M64.1,110l3.1-7.4c-4.8,1.7-6.2,3.4-5.8,6.7c0.5-0.2,0.9-0.5,1.5-0.9c-0.2,2.1-1.9,3.8-0.3,5.7C63.2,112.7,63.6,111.5,64.1,110
		 M64.4,115v-1c-0.2,0-0.3-0.2-0.5-0.2l-1.4,4.5c0.3,0.2,0.5,0.2,0.9,0.3C63.4,118.6,64.4,115,64.4,115z"/>
	<path class="st2" d="M73.7,49.3v-1.5l3.3,1.5c1.7,3.1,1.4,5.3-0.9,7.6c-1.9,1-4,1-5.8,0.3c-1.4-0.3-1.9,0-2.2,1
		c-0.7,1.9-1.5,3.8-1.9,5.8c-1.4,5.5,0.2,10.1,3.8,14.3c0.9,1,2.4,1.7,4,2.7c-1.2-7,2.6-10.3,7.9-12.9L79.6,67
		c-0.4-0.2-0.8-0.5-1.2-0.9c0.4-0.3,0.8-0.6,1.2-0.9l3.3-2.2c0-0.2-0.2-0.3-0.2-0.5h-7.4l2.2,3.1c-2.7,0.3-6.5-3.4-6.4-5.8
		c0-1.4,0.9-1.2,1.9-1.2l3.3,0.7c0.3,0.2,0.7,0.2,0.9,0.2h0.2h4.8h0.2l3.3-0.5h2.1c-0.2,3.4-2.6,5-4.8,6.7c1.5,2.2,4,1.7,6,2.1
		c5.3,0.9,7,6,4.5,10.5c-0.5,1-1.5,1.7-2.2,2.6c-0.2-0.2-0.4-0.3-0.7-0.3c0.2-0.5,0.3-1.2,0.7-1.7c1.7-2.9,1.5-5.7-0.5-7.6
		c-0.9-0.7-2.1-1-3.3-1.4c0.9,3.3,0.7,6.4-1,9.1c-1.2,1.9-2.7,3.3-5.2,4l-4,1l-5-1c-5.5-3.1-7.6-8.2-7.9-14.3
		c-0.2-4.3,0.7-8.4,2.9-12c0.2-0.3,0.2-1,0-1.2c-4.6-4.8-4.1-10.3-1.9-16l3.4-9.1c0.2-0.5,0.2-1,0.3-1.9c0.3,0.3,0.9,0.9,0.7,1.2
		c-0.2,1.9-0.5,3.8-1,5.5c-0.7,2.4-1.9,4.8-2.7,7.2c-1,3.3-1,6.4,0.7,9.5c1.4,2.2,3.3,3.6,5.8,3.4c1.9,0,3.1-1.2,3.3-2.9
		C76.5,50.9,75.6,50,73.7,49.3 M75.8,78c0.2,0.9,0.2,1.7,0.3,2.6c0,0.3,0.5,0.7,0.9,0.7c4.3-0.3,8.8-5,7-9.6c-0.5-1.4-1-1.4-2.1-0.9
		C79,72.3,76.8,74.6,75.8,78z"/>
	<path class="st3" d="M77.3,84.2l3.8-1c0.2,1.4,0.2,2.6,0,4.1c-1.4,0-2.6-0.3-3.8-0.5c1.4,1.5,2.6,1.7,4.3,0.9l6.5-1
		c0.5,0,1.2,0.5,1.5,1c1.2,2.7,1.4,5.5,0.3,8.4c-0.3,1-0.7,2.2-1.2,3.3c-0.9,1.7-2.2,2.4-4.3,2.1c-1.5-1.4-2.9-2.4-5-2.2
		c-3.1,0.2-6.4-0.9-9.6,0.2c-3.4-3.4-2.7-11.5,1-15.3c0.3-0.3,0.9-0.5,1.5-0.7c1.9,0.7,3.4,1.4,5.2,2.2
		C77.3,85.2,77.3,84.7,77.3,84.2 M69.8,94c0.5,1.4,1.9,1.7,2.1,0.5c0.3-1.7,0.3-3.6,0.3-5.3c0-0.3-0.7-1-1-0.9c-0.5,0-1.2,0.5-1.2,1
		C69.8,90.7,69.8,92.3,69.8,94 M82.1,91.1l-1.7,5.2C82,94.9,82.5,93.1,82.1,91.1z"/>
	<path class="st4" d="M76.3,56.9c2.2-2.2,2.4-4.5,0.9-7.6c1.2-0.7,1.2-1.5,0.7-2.6c-2.9,1.4-4.3,0.3-4.5-2.9c0-0.7-0.3-1.4-0.3-2.1
		c-0.3-2.1,0.7-3.4,2.9-3.4c0.3,0.3,0.3,0.5,0.5,0.7c0.2,0.3,0.3,0.5,0.7,0.9l0.5-0.2c0-0.3,0-0.9-0.2-1c-0.3-0.3-0.9-0.7-1.4-1
		c0.2-1.2,0.3-2.4,0.7-3.4c0.5-1.9,1.4-3.8,1.7-5.7c0.3-1.4,0-2.9,0.2-4.3c0-0.5,0.2-1.2,0.7-1.5c0.3-0.2,1.2-0.2,1.5,0.2
		c0.3,0.3,0.3,1,0.3,1.5c0,1.2-0.2,2.4,0.2,3.6c0.7,2.6,1.5,5,2.4,7.4c0.2,0.3,0.2,0.5,0.3,0.9c0.5,1.2,0.3,1.9-1.2,2.2
		c-0.3,0-0.7,0.7-1,1c0.5,0.2,0.9,0.3,1.4,0.3c0.2,0,0.5-0.2,0.9-0.3c1.2-0.3,2.6,0.7,2.4,1.9c-0.3,2.1-0.3,4.1-2.1,5.7
		c-0.5,0.5-1.2,1.4,0.2,1.9c-0.2,0.5-0.3,0.7-0.7,1c-1,1.2-1.2,2.4-0.5,3.8c0.7,1.4,1.7,1.9,3.3,1.9c2.7,0,5.2-1.5,6.4-4.5
		c1.5-3.6,1-7-0.3-10.5c-1.4-3.4-3.1-6.9-2.7-10.8l5.2,14.3c1,4,0,7.9-3.1,10.8c-2.6,2.6-5.8,2.7-8.9,0.7c-0.2-0.2-0.3-0.2-0.5-0.2
		c0,1,0,2.1-0.2,3.3l-0.3,0.3H82h-4.8c0-0.2-0.2-0.2-0.2-0.3C76.6,58.3,76.5,57.6,76.3,56.9 M81.8,46.1c0.3-0.5,0.7-1.2,1-1.9h-4.6
		c-0.7,0-1.5-0.5-1.7,0.7c-0.2,1,0.5,1.2,1.4,1.2L81.8,46.1 M76.6,41.1c-0.5,0.9-0.3,1.5,0.7,1.5l4.1-0.2c0.5,0,1-0.5,1.5-0.9
		c0-0.2-0.2-0.5-0.2-0.7L76.6,41.1 M81.3,48.6c0.3,0.3,0.9,0.5,1.5,1c0.2-1,0.3-1.7,0.2-2.4c0-0.2-1-0.3-1.2-0.2
		C81.6,47.4,81.4,47.9,81.3,48.6z"/>
	<path class="st5" d="M89.9,30.1c-0.5,4.1,1.4,7.4,2.7,11c1.4,3.4,1.9,6.9,0.3,10.5c-1.2,2.7-3.4,4.5-6.4,4.5
		c-1.5,0-2.6-0.5-3.3-1.9c-0.7-1.4-0.5-2.6,0.5-3.8c0.2-0.2,0.5-0.5,0.7-0.9c1.2-0.7,2.2-1,3.1,0.2c-0.7,0.5-1.5,0.9-2.1,1.4
		c-0.5,0.7-0.5,1.2,0.5,1.4c2.1,0.3,3.8-0.7,4.6-2.6c1-2.7,0.9-5.3-0.3-7.9c-1.5-3.8-2.9-7.7-2.4-11.9c0.2-1.9,0.5-3.6,2.4-5
		C90.4,27,90,28.4,89.9,30.1z"/>
	<path class="st6" d="M73.7,49.5c1.9,0.5,2.7,1.4,2.6,3.3c-0.2,1.7-1.4,2.9-3.3,2.9c-2.7,0.2-4.6-1.2-5.8-3.4
		c-1.7-3.1-1.9-6.2-0.7-9.5l2.7-7.2c0.5-1.7,0.7-3.6,1-5.5c0-0.5-0.3-0.9-0.7-1.4c-0.2-0.5-0.2-1-0.2-1.7c1.7,0.5,1.9,1.9,2.1,3.3
		c0.2,3.6-0.7,7-2.1,10.5c-1.2,3.1-2.4,6.4-0.7,9.6c0.7,1.2,1.9,2.2,3.1,3.1c0.9,0.7,2.1,0.5,2.6-0.5c0.3-0.5-0.2-1.5-0.3-2.2
		C73.9,50.2,73.7,49.8,73.7,49.5z"/>
	<path class="st7" d="M93.5,65.5c0,0.3-0.2,0.9-0.2,0.9c-1-0.2-2.2-0.3-3.1-0.9c-1-0.7-1.4-3.3-0.9-4.8c0.5-1.2,1.2-1.9,2.9-1.5
		C91.8,61.2,88.8,64.1,93.5,65.5z"/>
	<path class="st8" d="M95.4,60.5c-0.2,1.7-1.5,2.7-2.9,2.4c0-0.9,0-1.7,0.2-2.6c0.2-0.5,1-0.9,1.7-1C95.2,59.1,95.5,59.6,95.4,60.5z
		"/>
	<path class="st9" d="M77.3,84c0.2,0.5,0.2,1.2,0.2,1.5l-5-2.2c-0.2,0,0-0.2,0-0.3L77.3,84z"/>
	<path class="st4" d="M81.4,87.5c-1.5,0.9-2.9,0.7-4.1-0.9l3.8,0.7C81.3,87.5,81.3,87.5,81.4,87.5z"/>
	<path class="st9" d="M76.1,37.8c0.5,0.2,1,0.5,1.4,0.9c0.2,0.2,0.2,0.7,0.2,1c0,0-0.5,0.3-0.5,0.2c-0.3-0.2-0.5-0.5-0.7-0.9
		c-0.2-0.2-0.2-0.3-0.3-0.7C75.9,38.3,76.1,38.2,76.1,37.8z"/>
	<path class="st7" d="M82.3,59.6c0-0.2,0-0.2,0.2-0.3v0.3H82.3z"/>
	<path class="st10" d="M64.4,115.1l-1,3.4c-0.3-0.2-0.5-0.2-0.9-0.3l1.4-4.5c0.2,0,0.3,0.2,0.5,0.2
		C64.4,113.9,64.4,115.1,64.4,115.1z"/>
	<path class="st7" d="M77.3,59.6c1.4-0.2,3.1-0.2,4.8-0.2C80.6,59.6,79,59.6,77.3,59.6z M76.3,59.5c0-0.2,0.2-0.2,0.5-0.2
		s0.3,0.2,0.3,0.2H76.3z M69.8,94l0.2-4.6c0-0.3,0.7-0.9,1.2-1c0.3,0,1,0.5,1,0.9c0,1.9,0.2,3.6-0.3,5.3
		C71.7,95.7,70.3,95.4,69.8,94z"/>
	<path class="st8" d="M82.1,91.3c0.3,2.1-0.2,3.8-1.7,5L82.1,91.3z"/>
	<path class="st11" d="M81.6,46.1h-3.8c-0.9,0-1.5-0.2-1.4-1.2c0.2-1.2,1-0.7,1.7-0.7h4.6C82.5,44.9,82.1,45.4,81.6,46.1 M79.6,45.2
		l-0.2,0.2C79.4,45.4,79.6,45.4,79.6,45.2z"/>
	<path class="st12" d="M76.8,41.1c2.1-0.2,4-0.2,6-0.2c0,0.2,0.2,0.5,0.2,0.7c-0.5,0.3-1,0.9-1.5,0.9c-1.4,0.2-2.7,0.2-4.1,0.2
		C76.3,42.6,76.1,41.9,76.8,41.1z"/>
	<path class="st13" d="M81.3,48.6c0.2-0.5,0.3-1.2,0.7-1.4c0.2-0.2,1.2,0.2,1.2,0.2c0,0.7-0.2,1.4-0.2,2.4
		C82.1,49.2,81.8,49,81.3,48.6z"/>
	<path class="st4" d="M79.6,45.4c0,0.2-0.2,0.2-0.2,0.2C79.4,45.4,79.6,45.4,79.6,45.4z"/>
</g>
</svg>
