<?xml version="1.0" encoding="utf-8"?>
<!-- Generator: Adobe Illustrator 25.0.0, SVG Export Plug-In . SVG Version: 6.00 Build 0)  -->
<svg version="1.1" id="Layer_1" xmlns="http://www.w3.org/2000/svg" xmlns:xlink="http://www.w3.org/1999/xlink" x="0px" y="0px"
	 viewBox="0 0 200 200" style="enable-background:new 0 0 200 200;" xml:space="preserve">
<style type="text/css">
	.st0{opacity:0.5;fill:#4F4DA0;stroke:#010101;stroke-width:3;stroke-miterlimit:10;}
	.st1{fill:#418ECC;stroke:#010101;stroke-width:1.0358;stroke-miterlimit:10;}
	.st2{fill:#802E1A;stroke:#010101;stroke-width:1.0358;stroke-miterlimit:10;}
	.st3{fill:#7B2E18;stroke:#010101;stroke-width:1.0358;stroke-miterlimit:10;}
	.st4{fill:#3D8CCB;stroke:#010101;stroke-width:1.0358;stroke-miterlimit:10;}
	.st5{fill:#9691C7;stroke:#010101;stroke-width:1.0358;stroke-miterlimit:10;}
	.st6{fill:#27242B;stroke:#010101;stroke-width:1.0358;stroke-miterlimit:10;}
	.st7{fill:#E82528;stroke:#010101;stroke-width:1.0358;stroke-miterlimit:10;}
	.st8{fill:#141316;stroke:#010101;stroke-width:1.0358;stroke-miterlimit:10;}
	.st9{fill:#8B463E;stroke:#010101;stroke-width:1.0358;stroke-miterlimit:10;}
	.st10{fill:#90565F;stroke:#010101;stroke-width:1.0358;stroke-miterlimit:10;}
</style>
<g>
	<path class="st0" d="M133.8,86.3l49.9,19.5v67.8c-12,0.8-23.1,3-32.6,6.5c-9.8,3.5-20.8,9.6-33.1,18c-10.7-4.8-19.8-8.1-27.7-9.7
		c-7.8-1.8-16-2.7-24.8-2.7c-13.5,0-25.3,3-35.9,9.1c-3.8,2.2-6.6,3.4-8.4,3.4c-1.5,0-3.3-0.7-4.7-1.8c-1.5-1.1-2.4-2.5-2.4-3.5
		c0-1.2,1.5-3,4.6-5.2c1.6-1.2,4.7-3.7,8.7-7.4l19.7-18.3l27.7-27.6l-46.8-19v-60c14.7-3.4,26.4-7.2,34.8-11.5s16.4-10.1,24-17.5
		c18.4,5.7,33.1,10,44.2,12.3c8.2,1.6,15.7,2.5,23.1,2.5c8.2,0,14.4-1.2,18.8-4c4.6-2.6,6.6-5.5,6.6-8.3c0-1.9-1.5-3.8-4.2-5.7
		c-5.5-3.7-8.4-7.4-8.4-10.9c0-3.4,1.3-5.9,3.6-8.1c2.4-1.9,5.1-3,8.2-3c4,0,7.6,1.5,10.9,4.1s4.9,6.4,4.9,10.9
		c0,4.6-1.3,9.1-3.8,13.6c-2.5,4.5-7.5,10.1-14.9,17.1L133.8,86.3z M107.8,111.9l-51.7,52c6.4-1.6,12.2-2.7,17.7-3.5
		c5.3-0.8,10.4-1.1,14.7-1.1c16.4,0,33.5,4.1,51.3,12.3v-46.7L107.8,111.9z M71,97.4l29.5,11.3l46.8-46.7c-9.6,2-17.8,3-24.9,3
		c-17.7,0-34.8-4.5-51.3-13.2L71,97.4L71,97.4z"/>
</g>
<g>
	<path class="st1" d="M89.7,86v-3l6.7,3c3.4,6,2.7,10.3-1.9,14.8c-3.8,2-8.1,2-11.7,0.7c-2.7-0.7-3.8,0-4.5,2
		c-1.4,3.7-3.1,7.5-3.8,11.3c-2.7,10.6,0.3,19.6,7.7,27.9c1.9,2,4.8,3.3,8.1,5.3c-2.4-13.6,5.1-20.1,15.9-25.1l-4.6-2.2
		c-0.9-0.3-1.5-1-2.4-1.8c0.9-0.7,1.5-1.2,2.4-1.8l6.7-4.3c0-0.3-0.3-0.7-0.3-1H93.1l4.5,6c-5.5,0.7-13-6.6-12.9-11.3
		c0-2.7,1.9-2.3,3.8-2.3l6.7,1.3c0.7,0.3,1.4,0.3,1.9,0.3h0.3h9.6h0.3l6.7-1h4.3c-0.3,6.6-5.1,9.8-9.6,13.1c3.1,4.3,8.1,3.3,12,4.2
		c10.6,1.8,14.1,11.6,9.1,20.4c-1,2-3.1,3.3-4.5,5c-0.3-0.3-0.9-0.7-1.4-0.7c0.3-1,0.7-2.3,1.4-3.3c3.4-5.7,3.1-11.1-1-14.8
		c-1.9-1.3-4.3-2-6.7-2.7c1.9,6.5,1.4,12.5-2.1,17.8c-2.4,3.7-5.5,6.5-10.5,7.8l-8.1,2l-10.1-2c-11-6-15.3-16-15.9-27.9
		c-0.3-8.3,1.4-16.3,5.8-23.4c0.3-0.7,0.3-2,0-2.3c-9.3-9.3-8.2-20.1-3.8-31.2l6.9-17.8c0.3-1,0.3-2,0.7-3.7
		c0.7,0.7,1.9,1.8,1.4,2.3c-0.3,3.7-1,7.5-2.1,10.6c-1.4,4.7-3.8,9.3-5.5,14c-2.1,6.5-2.1,12.5,1.4,18.4c2.7,4.3,6.7,7,11.7,6.6
		c3.8,0,6.2-2.3,6.7-5.7C95.4,89.1,93.5,87.5,89.7,86 M94,142c0.3,1.8,0.3,3.3,0.7,5c0,0.7,1,1.3,1.9,1.3
		c8.6-0.7,17.7-9.8,14.1-18.8c-1-2.7-2.1-2.7-4.3-1.8C100.3,130.9,96,135.4,94,142z"/>
	<path class="st2" d="M96.9,154l7.7-2c0.3,2.7,0.3,5,0,8c-2.7,0-5.1-0.7-7.7-1c2.7,3,5.1,3.3,8.6,1.8l13-2c1,0,2.4,1,3.1,2
		c2.4,5.3,2.7,10.6,0.7,16.3c-0.7,2-1.4,4.3-2.4,6.5c-1.9,3.3-4.5,4.7-8.6,4.2c-3.1-2.7-5.8-4.7-10.1-4.3
		c-6.2,0.3-12.9-1.8-19.4,0.3c-6.9-6.6-5.5-22.4,2.1-29.8c0.7-0.7,1.9-1,3.1-1.3c3.8,1.3,6.9,2.7,10.5,4.3
		C96.9,156,96.9,155,96.9,154 M81.8,173.1c1,2.7,3.8,3.3,4.3,1c0.7-3.3,0.7-7,0.7-10.3c0-0.7-1.4-2-2.1-1.8c-1,0-2.4,1-2.4,2
		C81.8,166.6,81.8,169.8,81.8,173.1 M106.7,167.4l-3.4,10.1C106.3,174.9,107.4,171.4,106.7,167.4z"/>
	<path class="st3" d="M95,100.8c4.5-4.3,4.8-8.8,1.9-14.8c2.4-1.3,2.4-3,1.4-5c-5.8,2.7-8.6,0.7-9.1-5.7c0-1.3-0.7-2.7-0.7-4.2
		c-0.7-4.2,1.4-6.6,5.8-6.6c0.7,0.7,0.7,1,1,1.3c0.3,0.7,0.7,1,1.4,1.8l1-0.3c0-0.7,0-1.8-0.3-2c-0.7-0.7-1.9-1.3-2.7-2
		c0.3-2.3,0.7-4.7,1.4-6.6c1-3.7,2.7-7.5,3.4-11.1c0.7-2.7,0-5.7,0.3-8.3c0-1,0.3-2.3,1.4-3c0.7-0.3,2.4-0.3,3.1,0.3
		c0.5,0.8,0.5,2.2,0.5,3.2c0,2.3-0.3,4.7,0.3,7c1.4,5,3.1,9.8,4.8,14.5c0.3,0.7,0.3,1,0.7,1.8c1,2.3,0.7,3.7-2.4,4.3
		c-0.7,0-1.4,1.3-2.1,2c1,0.3,1.9,0.7,2.7,0.7c0.3,0,1-0.3,1.9-0.7c2.4-0.7,5.1,1.3,4.8,3.7c-0.5,4-0.5,7.8-4.1,11
		c-1,1-2.4,2.7,0.3,3.7c-0.3,1-0.7,1.3-1.4,2c-2.1,2.3-2.4,4.7-1,7.5c1.4,2.7,3.4,3.7,6.7,3.7c5.5,0,10.5-3,12.9-8.8
		c3.1-7,2.1-13.6-0.7-20.4c-2.7-6.6-6.2-13.5-5.5-21.1l10.5,27.9c2.1,7.8,0,15.5-6.2,21.1c-5.1,5-11.7,5.3-17.8,1.3
		c-0.3-0.5-0.7-0.5-1-0.5c0,2,0,4.2-0.3,6.5l-0.7,0.7h-0.9h-9.6c0-0.3-0.3-0.3-0.3-0.7C95.5,103.6,95.4,102.3,95,100.8 M106,79.8
		c0.7-1,1.4-2.3,2.1-3.7h-9.3c-1.4,0-3.1-1-3.4,1.3c-0.3,2,1,2.3,2.7,2.3H106 M95.5,70c-1,1.8-0.7,3,1.4,3l8.2-0.3
		c1,0,2.1-1,3.1-1.8c0-0.3-0.3-1-0.3-1.3L95.5,70 M105,84.7c0.7,0.7,1.9,1,3.1,2c0.3-2,0.7-3.3,0.3-4.7c0-0.3-2.1-0.7-2.4-0.3
		C105.6,82.3,105.1,83.3,105,84.7z"/>
	<path class="st4" d="M122.3,48.6c-1,8,2.7,14.5,5.5,21.4c2.7,6.6,3.8,13.5,0.7,20.4c-2.4,5.3-6.9,8.8-12.9,8.8
		c-3.1,0-5.1-1-6.7-3.7c-1.4-2.7-1-5,1-7.5c0.3-0.3,1-1,1.4-1.8c2.4-1.3,4.5-2,6.2,0.3c-1.4,1-3.1,1.8-4.3,2.7c-1,1.3-1,2.3,1,2.7
		c4.3,0.7,7.7-1.3,9.3-5c2.1-5.3,1.9-10.3-0.7-15.5c-3.1-7.5-5.8-15-4.8-23.1c0.3-3.7,1-7,4.8-9.8C123.3,42.6,122.4,45.3,122.3,48.6
		z"/>
	<path class="st5" d="M89.7,86.5c3.8,1,5.5,2.7,5.1,6.5c-0.3,3.3-2.7,5.7-6.7,5.7c-5.5,0.3-9.3-2.3-11.7-6.6
		c-3.4-6-3.8-12.1-1.4-18.4l5.5-14c1-3.3,1.4-7,2.1-10.6c0-1-0.7-1.8-1.4-2.7c-0.3-1-0.3-2-0.3-3.3c3.4,1,3.8,3.7,4.3,6.5
		c0.3,7-1.4,13.6-4.3,20.4c-2.4,6-4.8,12.5-1.4,18.8c1.4,2.3,3.8,4.3,6.2,6c1.9,1.3,4.3,1,5.1-1c0.7-1-0.3-3-0.7-4.3
		C90.2,87.8,89.7,87,89.7,86.5z"/>
	<path class="st6" d="M129.5,117.6c0,0.7-0.3,1.8-0.3,1.8c-2.1-0.3-4.5-0.7-6.2-1.8c-2.1-1.3-2.7-6.5-1.9-9.3c1-2.3,2.4-3.7,5.8-3
		C126,109.3,120,114.9,129.5,117.6z"/>
	<path class="st7" d="M133.4,107.9c-0.3,3.3-3.1,5.3-5.8,4.7c0-1.8,0-3.3,0.3-5c0.3-1,2.1-1.8,3.4-2
		C132.9,105.1,133.6,106.1,133.4,107.9z"/>
	<path class="st8" d="M96.9,153.6c0.3,1,0.3,2.3,0.3,3l-10.1-4.3c-0.3,0,0-0.3,0-0.7L96.9,153.6z"/>
	<path class="st3" d="M105.1,160.4c-3.1,1.8-5.8,1.3-8.2-1.8l7.7,1.3C105,160.4,105,160.4,105.1,160.4z"/>
	<path class="st8" d="M97.2,65.5"/>
	<path class="st8" d="M94.5,64.7c-0.3-0.2,0-0.3,0-1"/>
	<path class="st8" d="M96.6,67.9"/>
	<path class="st6" d="M107,106.1c0-0.3,0-0.3,0.3-0.7v0.7H107z"/>
	<path class="st6" d="M96.9,106.1c2.7-0.3,6.2-0.3,9.6-0.3C103.6,106.1,100.3,106.1,96.9,106.1z M95,105.9c0-0.3,0.3-0.3,1-0.3
		c0.7,0,0.7,0.3,0.7,0.3H95z M81.8,173.1l0.3-9c0-0.7,1.4-1.8,2.4-2c0.7,0,2.1,1,2.1,1.8c0,3.7,0.3,7-0.7,10.3
		C85.8,176.4,82.8,175.9,81.8,173.1z"/>
	<path class="st7" d="M106.7,167.9c0.7,4.2-0.3,7.5-3.4,9.8L106.7,167.9z"/>
	<path class="st9" d="M105.6,79.8h-7.7c-1.9,0-3.1-0.3-2.7-2.3c0.3-2.3,2.1-1.3,3.4-1.3h9.3C107.4,77.5,106.7,78.5,105.6,79.8
		 M101.5,78l-0.3,0.3C101.2,78.5,101.5,78.5,101.5,78z"/>
	<path class="st10" d="M96,70c4.3-0.3,8.1-0.3,12-0.3c0,0.3,0.3,1,0.3,1.3c-1,0.7-2.1,1.8-3.1,1.8c-2.7,0.3-5.5,0.3-8.2,0.3
		C95,73,94.5,71.7,96,70z"/>
	<path class="st3" d="M105,84.7c0.3-1,0.7-2.3,1.4-2.7c0.3-0.3,2.4,0.3,2.4,0.3c0,1.3-0.3,2.7-0.3,4.7C106.7,85.8,106,85.5,105,84.7
		z"/>
	<path class="st3" d="M101.5,78.5c0,0.3-0.3,0.3-0.3,0.3C101.2,78.5,101.5,78.5,101.5,78.5z"/>
</g>
</svg>
